<svg width="418" height="156" viewBox="0 0 418 156" fill="none" xmlns="http://www.w3.org/2000/svg">
    <path d="M193.42 147.88C191.03 141.52 188.86 136.01 186.93 131.38C185 126.74 182.9 121.96 180.64 117.04H176.53V138.63C176.53 139.75 176.63 140.73 176.84 141.58C177.05 142.43 177.49 143.08 178.17 143.52C178.51 143.74 179.1 143.95 179.95 144.14C180.8 144.33 181.52 144.44 182.1 144.48V147.89H165.12V144.48C165.57 144.42 166.23 144.3 167.09 144.14C167.95 143.98 168.55 143.77 168.89 143.52C169.46 143.1 169.87 142.5 170.12 141.7C170.37 140.9 170.5 139.88 170.5 138.63V89.3996C170.5 88.2796 170.41 87.2896 170.22 86.4296C170.03 85.5696 169.59 84.9096 168.89 84.4596C168.42 84.1696 167.81 83.9096 167.05 83.6696C166.29 83.4296 165.65 83.2796 165.13 83.2096V79.7996H183.67C185.37 79.7996 186.96 80.0996 188.45 80.6896C189.94 81.2796 191.29 82.2296 192.5 83.5396C193.67 84.8196 194.6 86.4896 195.3 88.5496C196 90.6096 196.35 93.0996 196.35 96.0096C196.35 98.6296 196.11 100.95 195.64 102.97C195.17 104.99 194.47 106.73 193.55 108.2C192.7 109.58 191.68 110.77 190.49 111.77C189.3 112.78 187.99 113.63 186.56 114.34C188.54 118.79 190.19 122.53 191.5 125.57C192.81 128.61 194.42 132.3 196.33 136.65C197.16 138.57 197.91 139.98 198.58 140.9C199.25 141.81 199.91 142.56 200.58 143.13C201.07 143.55 201.68 143.87 202.42 144.09C203.16 144.31 203.77 144.44 204.26 144.47V147.88H193.42ZM189.34 97.1496C189.34 93.0296 188.64 89.7696 187.25 87.3596C185.86 84.9496 183.88 83.7396 181.33 83.7396H176.52V112.91H180.23C182.83 112.91 185 111.5 186.74 108.67C188.48 105.84 189.34 102 189.34 97.1496Z" fill="#242424"/>
    <path d="M238.22 87.8595C239.99 90.9895 241.38 94.7795 242.38 99.2095C243.38 103.639 243.88 108.539 243.88 113.909C243.88 119.279 243.37 124.219 242.35 128.639C241.33 133.049 239.92 136.809 238.1 139.909C236.35 142.979 234.31 145.349 231.99 147.009C229.67 148.669 227.2 149.509 224.57 149.509C221.78 149.509 219.2 148.619 216.83 146.849C214.46 145.069 212.43 142.599 210.73 139.439C209.03 136.339 207.7 132.569 206.73 128.139C205.76 123.709 205.27 118.969 205.27 113.919C205.27 108.389 205.78 103.449 206.8 99.1195C207.82 94.7895 209.22 91.0395 211.02 87.8695C212.79 84.7395 214.85 82.3395 217.2 80.6695C219.55 79.0095 222.01 78.1795 224.57 78.1795C227.13 78.1795 229.74 79.0295 232.1 80.7195C234.46 82.4095 236.5 84.7995 238.21 87.8695L238.22 87.8595ZM234 136.119C235.06 133.209 235.83 129.919 236.31 126.239C236.79 122.559 237.03 118.449 237.03 113.909C237.03 109.369 236.76 104.949 236.22 101.049C235.68 97.1495 234.89 93.8195 233.86 91.0695C232.82 88.3495 231.52 86.2295 229.95 84.7095C228.38 83.1895 226.59 82.4295 224.57 82.4295C222.31 82.4295 220.38 83.3095 218.8 85.0695C217.22 86.8295 215.92 89.1795 214.92 92.1195C213.98 94.9295 213.27 98.2295 212.81 101.999C212.35 105.769 212.12 109.739 212.12 113.899C212.12 118.509 212.37 122.659 212.86 126.369C213.35 130.079 214.12 133.369 215.18 136.249C216.2 139.059 217.48 141.259 219.03 142.849C220.58 144.429 222.43 145.219 224.58 145.219C226.6 145.219 228.42 144.419 230.04 142.819C231.66 141.219 232.98 138.979 234 136.099V136.119Z" fill="#242424"/>
    <path d="M274.62 83.2096C274.09 83.2396 273.44 83.3596 272.65 83.5696C271.86 83.7796 271.2 84.0396 270.65 84.3596C270.01 84.7396 269.57 85.3796 269.35 86.2796C269.12 87.1796 269.01 88.1496 269.01 89.2096V129.56C269.01 131.67 268.76 133.91 268.26 136.28C267.76 138.65 267.03 140.76 266.07 142.61C264.96 144.79 263.63 146.48 262.09 147.7C260.55 148.92 258.79 149.52 256.81 149.52C253.73 149.52 251.24 148.06 249.32 145.13C247.4 142.2 246.45 138.26 246.45 133.3C246.45 131.13 246.78 129.2 247.44 127.52C248.1 125.84 249.06 125 250.33 125C251.46 125 252.37 125.54 253.06 126.61C253.75 127.68 254.09 129.1 254.09 130.86C254.09 131.88 253.97 132.91 253.72 133.93C253.47 134.95 253.2 135.87 252.9 136.66C252.62 137.4 252.3 138.26 251.94 139.25C251.58 140.24 251.33 141.14 251.18 141.94C251.58 143 252.19 143.92 253.03 144.72C253.87 145.52 255 145.92 256.41 145.92C257.82 145.92 258.91 145.38 259.79 144.31C260.67 143.24 261.32 141.81 261.76 140.02C262.18 138.36 262.47 136.31 262.65 133.88C262.83 131.45 262.92 128.73 262.92 125.72V89.6796C262.92 88.5596 262.81 87.6296 262.59 86.8696C262.37 86.1196 261.92 85.4496 261.25 84.8796C260.67 84.3696 259.93 83.9796 259.06 83.6996C258.18 83.4296 257.46 83.2596 256.89 83.1996V79.7996H274.61V83.2096H274.62Z" fill="#242424"/>
    <path d="M312.68 127.82L311.92 147.87H278.58V144.46C279.15 144.4 279.9 144.26 280.84 144.05C281.78 143.84 282.4 143.63 282.68 143.4C283.28 142.92 283.7 142.3 283.94 141.53C284.18 140.76 284.29 139.79 284.29 138.6V89.6796C284.29 88.6196 284.19 87.6896 283.98 86.8696C283.77 86.0496 283.34 85.3896 282.68 84.8796C282.17 84.4596 281.49 84.0996 280.63 83.7796C279.77 83.4596 279.09 83.2696 278.58 83.1996V79.7996H309.66V96.2096H307.54C307.16 93.7796 306.35 91.1996 305.09 88.4596C303.84 85.7296 302.64 84.2296 301.51 83.9696C300.93 83.8396 300.23 83.7496 299.42 83.6796C298.61 83.6196 297.68 83.5796 296.65 83.5796H290.34V110.64H294.87C296.32 110.64 297.38 110.41 298.05 109.94C298.72 109.48 299.31 108.7 299.82 107.61C300.23 106.68 300.59 105.44 300.88 103.89C301.17 102.34 301.37 100.88 301.46 99.4996H303.58V126.17H301.46C301.38 124.63 301.18 123.01 300.85 121.3C300.52 119.59 300.18 118.35 299.82 117.58C299.24 116.33 298.57 115.52 297.82 115.13C297.07 114.75 296.09 114.55 294.86 114.55H290.33V134.95C290.33 136.99 290.41 138.61 290.58 139.79C290.75 140.97 291.08 141.87 291.57 142.47C292.06 143.08 292.73 143.47 293.58 143.64C294.43 143.82 295.64 143.9 297.2 143.9H299.66C300.68 143.9 301.54 143.84 302.24 143.71C302.96 143.58 303.7 143.35 304.46 143.01C305.22 142.67 305.77 142.22 306.09 141.64C306.96 140.1 307.87 137.78 308.82 134.66C309.77 131.54 310.38 129.25 310.65 127.78H312.69L312.68 127.82Z" fill="#242424"/>
    <path d="M334.46 149.51C332.07 149.51 329.77 148.71 327.57 147.11C325.37 145.51 323.43 143.21 321.73 140.2C320.05 137.19 318.71 133.52 317.71 129.18C316.71 124.84 316.21 119.95 316.21 114.51C316.21 109.07 316.7 104.13 317.68 99.7001C318.66 95.2701 320.02 91.4501 321.75 88.2501C323.46 85.0801 325.49 82.6301 327.83 80.9101C330.17 79.1801 332.66 78.3201 335.32 78.3201C337.3 78.3201 339.09 78.7401 340.69 79.5701C342.29 80.4001 343.82 81.5701 345.27 83.0701L346.43 79.8101H348.69L348.94 104.08H346.62C346.32 101.71 345.87 99.1501 345.26 96.3801C344.66 93.6101 343.95 91.2701 343.14 89.3501C342.24 87.1801 341.16 85.4701 339.92 84.2401C338.68 83.0101 337.25 82.3901 335.65 82.3901C333.82 82.3901 332.12 83.0801 330.55 84.4501C328.98 85.8301 327.62 87.8601 326.47 90.5501C325.38 93.1401 324.52 96.4401 323.9 100.44C323.28 104.44 322.97 108.91 322.97 113.84C322.97 118.19 323.3 122.19 323.95 125.82C324.6 129.45 325.53 132.65 326.74 135.4C327.95 138.12 329.37 140.25 331.02 141.79C332.67 143.33 334.51 144.09 336.55 144.09C338.08 144.09 339.48 143.68 340.76 142.87C342.04 142.05 343.15 140.97 344.1 139.63C345.04 138.22 345.87 136.62 346.59 134.83C347.31 133.04 347.89 131.09 348.34 128.98L350.46 130.71C348.84 137.46 346.69 142.28 344.01 145.17C341.33 148.06 338.15 149.51 334.45 149.51H334.46Z" fill="#242424"/>
    <path d="M384.72 98.2696C384.55 97.1196 384.24 95.7496 383.8 94.1696C383.36 92.5896 382.86 91.0896 382.31 89.6796C381.74 88.2096 381.12 86.9196 380.45 85.8196C379.78 84.7196 379.13 84.0896 378.51 83.9196C377.92 83.7896 377.19 83.6996 376.3 83.6296C375.41 83.5696 374.59 83.5296 373.83 83.5296H372.18V137.98C372.18 139.04 372.31 140 372.58 140.88C372.84 141.76 373.31 142.44 373.97 142.92C374.31 143.14 375.02 143.45 376.11 143.83C377.2 144.21 378.04 144.42 378.64 144.45V147.86H359.68V144.45C360.21 144.39 361.01 144.26 362.1 144.07C363.19 143.88 363.93 143.64 364.35 143.35C364.97 142.93 365.43 142.34 365.72 141.55C366.01 140.77 366.16 139.72 366.16 138.41V83.5396H364.52C363.94 83.5396 363.21 83.5596 362.34 83.6096C361.47 83.6596 360.64 83.7596 359.85 83.9196C359.23 84.0496 358.58 84.6796 357.91 85.8196C357.24 86.9596 356.62 88.2396 356.06 89.6796C355.49 91.1196 354.99 92.6496 354.56 94.2596C354.13 95.8796 353.82 97.2096 353.65 98.2696H351.67V79.7996H386.68V98.2696H384.72Z" fill="#242424"/>
    <path d="M414.86 116.65C415.71 118.25 416.34 120 416.74 121.9C417.15 123.8 417.35 126.02 417.35 128.54C417.35 134.55 416.04 139.51 413.42 143.41C410.8 147.31 407.54 149.26 403.66 149.26C401.87 149.26 400.08 148.79 398.28 147.84C396.49 146.9 394.94 145.75 393.64 144.41L392.42 147.91H390.16L389.76 124.59H392.05C392.52 127.47 393.07 130.07 393.71 132.39C394.34 134.71 395.18 136.88 396.21 138.89C397.19 140.78 398.34 142.28 399.65 143.4C400.96 144.52 402.48 145.08 404.22 145.08C405.52 145.08 406.66 144.79 407.63 144.22C408.6 143.64 409.39 142.83 409.99 141.77C410.59 140.71 411.04 139.47 411.33 138.05C411.62 136.62 411.77 134.98 411.77 133.13C411.77 130.41 411.32 127.87 410.41 125.52C409.5 123.17 408.16 121.38 406.36 120.16C405.13 119.33 403.73 118.42 402.14 117.41C400.55 116.4 399.19 115.46 398.04 114.57C395.78 112.84 394.02 110.58 392.76 107.78C391.51 104.98 390.88 101.33 390.88 96.8198C390.88 94.2298 391.19 91.8198 391.81 89.5798C392.43 87.3398 393.32 85.3398 394.47 83.5798C395.56 81.9198 396.86 80.6098 398.35 79.6698C399.84 78.7298 401.4 78.2498 403.02 78.2498C404.87 78.2498 406.52 78.7298 407.99 79.6898C409.45 80.6498 410.79 81.7698 411.99 83.0498L413.15 79.7898H415.41L415.64 102.39H413.35C412.93 99.7998 412.47 97.3198 411.95 94.9498C411.43 92.5798 410.76 90.4398 409.93 88.5198C409.12 86.6698 408.13 85.1898 406.96 84.0798C405.79 82.9698 404.36 82.4298 402.66 82.4298C400.87 82.4298 399.34 83.4098 398.08 85.3598C396.82 87.3098 396.18 89.6898 396.18 92.5098C396.18 95.3298 396.59 97.8898 397.4 99.8298C398.21 101.77 399.39 103.36 400.94 104.6C402.32 105.72 403.67 106.69 405 107.5C406.33 108.31 407.62 109.19 408.86 110.11C409.99 110.94 411.08 111.88 412.13 112.94C413.18 114 414.09 115.23 414.86 116.63V116.65Z" fill="#242424"/>
    <path d="M142.188 110.178C138.44 111.977 136.937 111.572 134.595 107.892C132.441 104.511 130.349 101.101 128.354 97.6191C127.362 95.8742 127.808 95.2573 129.734 95.3314C131.718 95.4141 133.201 96.2888 134.188 98.0715C135.171 99.8731 136.207 101.654 137.295 103.394C137.796 104.204 138.403 105.138 139.619 104.523C140.73 103.97 141.58 103.222 141.291 101.75C141.013 100.269 140.816 98.7618 140.597 97.2708C139.617 90.8273 139.981 84.3492 139.785 77.8814C139.767 77.0004 140.086 76.1905 140.532 75.4386C141.631 73.5613 142.3 71.5986 142.354 69.3484C142.405 67.1847 143.506 66.5045 145.644 67.2481C150.649 68.9726 155.604 70.8344 160.565 72.6584C161.481 72.9921 162.354 73.4929 162.986 74.256C165.657 77.5234 168.339 80.7828 169.325 85.0458C169.542 86.0154 169.684 86.9733 169.308 87.9097C165.725 96.8564 160.011 103.536 150.237 105.885C147.383 106.566 147.515 106.586 147.926 109.554C148.721 115.342 149.726 121.075 151.284 126.719C152.705 131.841 154.191 136.914 157.033 141.472C157.098 141.559 157.162 141.646 157.205 141.749C157.775 142.947 158.415 144.194 156.996 145.211C155.966 145.941 154.32 145.456 153.354 144.063C150.738 140.283 149.016 136.109 147.72 131.721C145.848 125.382 144.283 118.984 143.136 112.495C142.994 111.673 142.993 110.746 142.188 110.178ZM156.291 97.115C159.209 95.4593 160.574 92.2042 162.319 89.2583C164.76 85.1551 163.138 79.0184 158.889 76.6668C155.774 74.9431 152.326 73.921 148.897 72.9694C147.507 72.5821 146.897 73.3377 146.672 74.5675C146.465 75.7326 146.407 76.9397 146.071 78.0656C144.006 85.1124 145.225 92.1717 146.088 99.2246C146.278 100.856 147.045 101.35 148.579 100.804C151.181 99.8719 153.986 99.3282 156.301 97.107L156.291 97.115Z" fill="#242424"/>
    <path d="M78.0601 127.63L77.2101 147.88H45.8201V144.47C46.2701 144.41 46.9301 144.29 47.7901 144.13C48.6501 143.97 49.2501 143.76 49.5901 143.51C50.1601 143.09 50.5701 142.49 50.8201 141.69C51.0701 140.89 51.2001 139.87 51.2001 138.62V89.8796C51.2001 88.7896 51.0901 87.8296 50.8701 86.9996C50.6501 86.1696 50.2201 85.4996 49.5801 84.9796C49.1501 84.5996 48.5401 84.2196 47.7501 83.8496C46.9701 83.4796 46.3201 83.2696 45.8101 83.1996V79.7996H62.7601V83.2096C62.2301 83.2396 61.5501 83.3996 60.7101 83.6896C59.8701 83.9796 59.2601 84.2296 58.8801 84.4596C58.2401 84.8396 57.8001 85.4996 57.5601 86.4296C57.3201 87.3596 57.2101 88.3496 57.2101 89.3996V135.12C57.2101 137.23 57.2701 138.87 57.3901 140.04C57.5101 141.21 57.8001 142.11 58.2501 142.75C58.6801 143.33 59.3301 143.7 60.1901 143.88C61.0501 144.06 62.2501 144.14 63.8001 144.14C64.5001 144.14 65.2201 144.11 65.9801 144.04C66.7301 143.98 67.4501 143.85 68.1301 143.66C68.7901 143.47 69.4001 143.2 69.9601 142.87C70.5201 142.53 70.9301 142.11 71.1901 141.6C71.9601 140.13 72.8601 137.9 73.8901 134.91C74.9201 131.92 75.6301 129.5 76.0301 127.64H78.0401L78.0601 127.63Z" fill="#242424"/>
    <path d="M113.04 127.63L112.19 147.88H80.8V144.47C81.25 144.41 81.91 144.29 82.77 144.13C83.63 143.97 84.23 143.76 84.57 143.51C85.14 143.09 85.55 142.49 85.8 141.69C86.05 140.89 86.18 139.87 86.18 138.62V89.8796C86.18 88.7896 86.07 87.8296 85.85 86.9996C85.63 86.1696 85.2 85.4996 84.56 84.9796C84.13 84.5996 83.52 84.2196 82.73 83.8496C81.95 83.4796 81.3 83.2696 80.79 83.1996V79.7996H97.74V83.2096C97.21 83.2396 96.53 83.3996 95.69 83.6896C94.85 83.9796 94.24 84.2296 93.86 84.4596C93.22 84.8396 92.78 85.4996 92.54 86.4296C92.3 87.3596 92.19 88.3496 92.19 89.3996V135.12C92.19 137.23 92.25 138.87 92.37 140.04C92.49 141.21 92.78 142.11 93.23 142.75C93.66 143.33 94.31 143.7 95.17 143.88C96.03 144.06 97.23 144.14 98.78 144.14C99.48 144.14 100.2 144.11 100.96 144.04C101.71 143.98 102.43 143.85 103.11 143.66C103.77 143.47 104.38 143.2 104.94 142.87C105.5 142.53 105.91 142.11 106.17 141.6C106.94 140.13 107.84 137.9 108.87 134.91C109.9 131.92 110.61 129.5 111.01 127.64H113.02L113.04 127.63Z" fill="#242424"/>
    <path d="M29.6263 122.211C25.5637 123.597 21.6289 125.432 17.6813 127.242C16.9914 127.55 16.7487 128.307 16.3782 128.91C14.4235 132.029 12.4306 135.122 10.527 138.28C7.95914 142.541 6.14502 147.046 6.37498 152.179C6.43886 153.72 5.55735 154.669 4.10094 155.054C2.61899 155.452 1.68638 154.913 1.48197 153.373C1.17536 151.024 1.32867 148.676 1.92911 146.353C3.21944 141.321 5.41682 136.727 8.40628 132.504C8.81509 131.927 9.21113 131.323 9.55607 130.694C9.68383 130.451 9.63272 130.104 9.68383 129.629C7.75473 129.526 6.13224 130.502 4.382 130.784C3.67935 130.9 3.01503 131.208 2.31238 131.259C0.958179 131.349 0.255528 130.553 0.0383448 129.27C-0.178838 127.986 0.523813 127.332 1.64805 127.075C3.04058 126.754 4.44588 126.498 5.85118 126.228C12.7372 124.957 13.0182 124.765 15.931 118.425C17.7324 114.497 19.0866 110.403 20.1086 106.232C21.565 100.238 23.3664 94.3726 25.717 88.6869C27.4162 84.6055 28.7193 80.4086 29.5625 76.0577C30.0863 73.3624 31.581 72.618 33.9572 73.5293C35.4775 74.1068 35.3625 75.3261 35.4264 76.5582C35.7458 81.8717 35.848 87.1981 36.4229 92.4988C36.6528 94.6806 37.0744 96.7727 38.1476 98.6593C40.4599 102.702 40.4216 106.822 38.9524 111.122C38.3903 112.752 37.2661 114.446 39.3101 116.14C40.1917 116.872 39.489 118.309 38.5053 118.681C35.8991 119.631 35.7586 121.877 35.107 124.033C33.2673 130.078 32.9224 136.329 32.1175 142.528C31.7343 145.467 31.1083 148.368 30.4823 151.268C30.0096 153.437 27.2245 154.477 25.4104 153.283C24.7206 152.834 24.5545 152.154 24.6439 151.409C24.925 148.868 24.9505 146.288 26.1131 143.914C26.8413 142.438 27.3906 140.872 27.3906 139.204C27.3906 133.916 28.6682 128.846 29.8052 123.738C29.9074 123.25 30.1501 122.763 29.6263 122.211ZM30.5845 90.7276C29.0387 92.9608 28.2977 95.5277 27.7228 98.069C25.9726 105.808 23.1364 113.162 20.3769 120.555C20.2619 120.85 20.2747 121.145 20.7346 121.518C24.3245 120.773 27.5695 118.81 30.9678 117.257C31.6449 116.949 31.9387 116.256 32.1687 115.537C32.8074 113.483 33.5356 111.455 34.1105 109.376C35.0176 106.039 35.1198 102.728 33.5995 99.4679C32.6413 97.4272 32.092 95.2197 31.6321 92.9993C31.4788 92.2292 31.5299 91.3308 30.5845 90.7019V90.7276Z" fill="#242424"/>
    <path d="M233.322 0.978158C235.198 0.501279 237.222 0.45201 238.605 1.12905L238.607 1.12911C239.315 1.47875 239.908 1.85793 240.187 2.43495C240.479 3.04077 240.362 3.71648 240.06 4.47405C239.443 6.03028 239.214 7.6338 238.967 9.33796C238.779 10.6559 238.402 11.9482 238.016 13.1979L238.016 13.1988C237.004 16.4608 234.564 17.8758 231.783 18.8384L231.777 18.8402C231.145 19.0508 230.555 19.2374 229.992 19.493L229.99 19.4939C229.73 19.6109 229.708 19.7316 229.706 19.7443C229.706 19.75 229.703 19.8007 229.776 19.8704L229.879 19.9468L229.883 19.9489C230.995 20.6281 231.66 21.5584 232.15 22.5396C232.393 23.0268 232.595 23.5322 232.786 24.0242C232.976 24.5122 233.151 24.9821 233.351 25.4403C233.357 25.4462 233.366 25.4556 233.382 25.4695C233.383 25.4709 233.385 25.4722 233.387 25.4736C233.406 25.4556 233.432 25.4304 233.464 25.3899C233.505 25.3375 233.539 25.2896 233.593 25.215L233.601 25.2045L233.973 24.7291C235.857 22.3875 238.084 20.5703 241.059 19.4375L241.283 19.3466C242.395 18.8722 243.354 18.1067 244.289 17.2152C244.788 16.7393 245.269 16.2372 245.766 15.7286C246.259 15.2237 246.764 14.7148 247.294 14.2416L247.294 14.2406C248.342 13.3053 249.526 12.6421 250.67 12.0246C251.829 11.3993 252.939 10.825 253.932 10.0523C254.192 9.84714 254.51 9.74124 254.795 9.68254C255.088 9.62237 255.389 9.6029 255.647 9.59967L255.653 9.59984C258.557 9.5957 261.586 9.50537 264.547 10.3966L264.548 10.3966C265.689 10.743 266.558 11.2781 266.991 12.1133C267.428 12.955 267.35 13.9643 266.92 15.0911L266.92 15.092C266.646 15.8083 266.467 16.4125 266.475 16.9809C266.482 17.5234 266.661 18.0715 267.188 18.673L267.189 18.674C267.776 19.347 268.019 20.1124 267.898 20.873C267.778 21.6215 267.319 22.2904 266.649 22.8149C266.108 23.2393 265.469 23.6046 264.819 23.8512L264.82 23.8522C263.93 24.1919 263.151 24.4068 262.486 24.4621C261.819 24.5175 261.216 24.4154 260.738 24.0628C260.258 23.7085 259.989 23.1629 259.861 22.5074C259.733 21.8559 259.735 21.0494 259.834 20.0983L259.834 20.0973C259.905 19.4346 259.819 18.9437 259.627 18.5396C259.457 18.1816 259.19 17.8592 258.81 17.5352L258.64 17.3962C257.853 16.7726 257.398 16.6748 257.13 16.7519C256.86 16.8297 256.521 17.1586 256.174 18.1125C255.199 20.7971 254.505 23.4014 254.832 26.2653C255.178 29.2103 255.122 32.2245 255.236 35.1282L255.272 35.7145C255.287 35.8787 255.306 36.0134 255.329 36.1236C255.351 36.2343 255.374 36.2953 255.389 36.3266C255.412 36.3245 255.448 36.3202 255.5 36.3065C255.676 36.26 255.93 36.1501 256.306 35.9575C259.467 34.3359 262.808 33.1398 266.043 31.8623C266.364 31.7356 266.59 31.5887 266.773 31.4094C266.96 31.2269 267.122 30.9926 267.293 30.6659L267.665 29.9336C269.48 26.2551 270.657 22.3277 271.904 18.374L272.322 17.0784C272.755 15.783 273.247 14.4941 273.917 13.271C274.655 11.9187 275.51 11.0052 276.617 10.6058C277.721 10.2078 278.965 10.3605 280.392 10.8912L280.393 10.8912C282.283 11.5882 284.164 12.4543 285.426 14.3192L285.427 14.3222C285.672 14.6889 286.066 14.9299 286.587 15.2774C287.323 15.767 287.834 16.3637 287.96 17.0948C288.085 17.8269 287.801 18.5546 287.267 19.2527C285.682 21.3258 284.319 23.479 283.49 25.9021L283.489 25.904C282.486 28.8038 280.352 30.7571 278.251 32.5661L278.25 32.5661C277.933 32.8397 277.728 33.0154 277.595 33.159C277.496 33.2648 277.475 33.3137 277.471 33.3253C277.472 33.3345 277.478 33.3931 277.569 33.55C277.622 33.6417 277.691 33.7465 277.779 33.8729L278.104 34.3272L278.106 34.3301C278.373 34.706 278.624 35.0954 278.869 35.4668C279.054 35.7485 279.236 36.0223 279.425 36.2857L279.617 36.5455L279.619 36.5475C279.761 36.7365 279.873 36.8463 279.956 36.9054C279.995 36.9336 280.023 36.9466 280.038 36.9518C280.044 36.9542 280.049 36.9548 280.051 36.9552C280.053 36.9555 280.055 36.9553 280.055 36.9553C280.056 36.9552 280.057 36.9549 280.059 36.9544C280.062 36.9538 280.067 36.9524 280.075 36.949C280.091 36.9421 280.118 36.9276 280.156 36.8968C280.237 36.8322 280.341 36.7182 280.469 36.532L280.47 36.5301C280.636 36.2912 280.709 36.0307 280.743 35.7215C280.76 35.5637 280.766 35.3993 280.772 35.2182C280.776 35.0428 280.78 34.8458 280.794 34.6503L280.794 34.6493C280.828 34.1913 280.885 33.6278 281.14 33.1629C281.423 32.647 281.916 32.3061 282.666 32.2327L282.667 32.2328C283.331 32.1692 283.978 32.2998 284.514 32.6409C284.986 32.942 285.35 33.3928 285.559 33.9679L285.639 34.2223L285.64 34.2243C286.042 35.7468 286.316 37.3018 286.568 38.8382L286.568 38.8392C286.762 40.036 285.991 40.8377 285.311 41.3856L285.312 41.3866C283.692 42.6995 281.784 43.2833 279.909 43.7215L278.058 44.1329C277.338 44.2932 276.723 44.1512 276.254 43.7368C275.867 43.3952 275.625 42.9085 275.472 42.3895L275.411 42.1658C274.833 39.8189 273.66 37.8812 271.73 36.3359L271.729 36.3359C271.301 35.9919 270.992 35.8263 270.706 35.7736C270.468 35.7298 270.193 35.7552 269.811 35.9089L269.641 35.983C267.854 36.8078 266.053 37.5991 264.259 38.3888C262.463 39.1792 260.673 39.9682 258.902 40.7935C257.328 41.5272 255.684 42.2201 253.867 42.4028L253.864 42.4037C253.636 42.4256 253.474 42.4562 253.361 42.4941C253.249 42.5317 253.222 42.5647 253.219 42.568C253.218 42.5692 253.216 42.5714 253.214 42.5796C253.211 42.5893 253.205 42.6118 253.206 42.6536C253.207 42.7428 253.233 42.8875 253.313 43.1101L253.312 43.1101C253.464 43.5238 253.412 43.9178 253.194 44.2428C252.995 44.5408 252.685 44.7404 252.39 44.8742L252.389 44.8732C251.912 45.0903 251.37 45.144 250.934 44.9253C250.709 44.8119 250.521 44.6265 250.415 44.3753C250.311 44.1273 250.303 43.8531 250.365 43.5804L250.365 43.5785C250.483 43.0735 250.466 42.6661 250.359 42.2994C250.25 41.9262 250.039 41.5641 249.726 41.1617L249.654 41.057C249.506 40.8067 249.482 40.5164 249.478 40.314C249.474 40.0744 249.502 39.7895 249.511 39.6223L249.512 39.6165C249.807 35.2197 249.368 30.8733 249.233 26.4156L249.233 26.4146C249.2 25.2332 249.3 24.0672 249.398 22.878C249.471 21.9973 249.543 21.0975 249.564 20.1434C246.763 22.3817 243.926 23.917 241.128 25.4375L241.127 25.4365C240.272 25.9023 239.572 26.5559 238.919 27.3026C238.247 28.0702 237.686 28.8601 237.017 29.6841L237.016 29.684C234.827 32.3728 232.221 34.5626 229.408 36.4264C227.409 37.7548 224.888 38.3896 222.391 36.9552L222.389 36.9542C221.91 36.6766 221.476 36.5041 221.036 36.5217L221.032 36.5216C219.027 36.5865 217.677 35.5362 216.27 34.5086C214.97 33.5599 214.309 32.4781 214.037 31.2955C213.771 30.139 213.886 28.9213 214.055 27.7232C214.093 27.4529 214.158 27.1943 214.225 26.9545C214.295 26.7033 214.36 26.491 214.418 26.2588C214.492 25.9624 214.538 25.6794 214.532 25.3898C212.594 25.7187 211.374 27.1267 210.022 28.6718L210.021 28.6708C208.96 29.8966 207.967 31.1782 206.976 32.4698L206.975 32.4688C206.149 33.5484 205.006 34.0924 203.879 34.4519L203.878 34.4509C203.117 34.6958 202.392 34.7191 201.758 34.5142C201.119 34.3074 200.607 33.8797 200.276 33.2895L200.277 33.2885C199.964 32.737 199.865 31.8971 199.928 31.1599C199.961 30.7801 200.039 30.3957 200.172 30.0564C200.304 29.7229 200.506 29.3903 200.814 29.1729C202.098 28.2678 203.214 27.1855 204.299 26.0359C205.369 24.9018 206.442 23.6648 207.57 22.5369C207.907 22.1973 208.328 21.9276 208.744 21.7524L208.752 21.7497C210.387 21.0943 211.912 20.2283 213.526 19.392C215.124 18.5639 216.79 17.7762 218.638 17.3385C219.507 17.1309 220.211 16.788 220.786 16.2756C221.362 15.7623 221.834 15.056 222.207 14.0849C223.662 10.3004 225.795 6.79926 228.452 3.69155L228.453 3.69158C229.554 2.40599 231.437 1.45758 233.322 0.978158ZM225.16 23.8948C224.947 24.785 224.907 25.7105 224.814 26.7187C224.712 27.8236 224.545 28.9953 223.947 30.1121L223.946 30.1131C223.891 30.2157 223.881 30.3604 223.977 30.5615C224.074 30.7663 224.265 30.9812 224.505 31.144C224.989 31.4671 225.492 31.4027 226.073 31.0807L226.074 31.0807C227.325 30.3887 227.799 28.8036 227.157 27.3303L227.157 27.3284C226.642 26.1343 225.936 25.0605 225.16 23.8948ZM278.765 17.1567C278.758 17.158 278.708 17.1683 278.606 17.2769C278.5 17.3896 278.374 17.5707 278.212 17.8503L278.211 17.8522C278.028 18.166 277.933 18.4849 277.756 18.9142L277.755 18.9181C276.587 21.6743 275.913 24.5375 275.793 27.7323C277.784 25.5584 279.21 23.2162 280.176 20.5687C280.372 20.0273 280.507 19.6544 280.584 19.3617C280.661 19.0726 280.662 18.9245 280.639 18.823C280.616 18.7267 280.557 18.6085 280.374 18.4126C280.184 18.2103 279.909 17.9726 279.502 17.6204L279.502 17.6194C279.261 17.4122 279.084 17.285 278.95 17.215C278.82 17.1472 278.771 17.1556 278.765 17.1567ZM232.752 8.47028C231.828 9.04885 231.268 9.9209 230.761 10.9292C230.461 11.5236 230.139 12.2556 229.806 12.8799C229.704 13.0718 229.594 13.262 229.478 13.4504C230.548 13.0573 231.246 12.5719 231.723 11.9292C232.303 11.1483 232.605 10.0713 232.752 8.47028Z" stroke="#242424"/>
    <mask id="path-4-outside-1_0_1" maskUnits="userSpaceOnUse" x="94.4294" y="23.6234" width="278.424" height="115.746" fill="black">
        <rect fill="white" x="94.4294" y="23.6234" width="278.424" height="115.746"/>
        <path d="M319.784 64.1213C319.265 65.1207 318.708 66.0855 318.259 67.1122C317.703 68.3859 317.116 69.6668 316.77 71.002C315.323 76.4807 311.191 78.4366 306.169 79.3902C302.877 80.0177 298.144 75.864 298.812 72.5943C299.382 69.7887 299.993 66.9972 300.552 64.2007C300.935 62.2722 300.858 60.2991 300.925 58.34C300.943 57.7345 300.851 57.1905 300.103 57.0561C298.058 56.7034 295.481 57.5957 294.721 59.4877C293.341 62.894 290.412 65.5018 289.723 69.2118C289.383 71.021 288.61 72.6235 287.785 74.2313C286.961 75.8288 283.899 76.8388 282.263 76.0935C281.603 75.7927 281.22 75.2822 281.196 74.58C281.181 74.0949 281.173 73.5384 281.387 73.1372C283.173 69.6879 283.293 65.6859 285.099 62.2488C285.426 61.6322 285.508 61.002 285.417 60.3449C285.164 58.3958 284.93 56.4487 284.895 54.4797C284.878 53.7061 284.695 52.9371 283.576 53.3328C280.783 54.3277 278.193 55.7746 275.916 57.6119C273.705 59.394 273.062 62.2029 272.521 64.8056C271.949 67.5287 271.125 70.1863 270.653 72.9295C270.436 74.2052 270.646 75.5429 270.124 76.7889C269.653 77.9268 268.222 79.1052 267.214 79.1C265.281 79.0772 264.283 78.435 263.743 77.0035C263.457 76.2348 263.739 75.5623 263.88 74.8454C264.864 69.6922 266.087 64.6137 267.844 59.659C267.889 59.5193 267.844 59.34 267.822 58.9365C266.284 59.7238 264.636 60.1608 263.445 61.3008C261.392 63.2628 259.055 64.7548 256.408 65.6199C254.835 66.1362 253.81 67.2614 252.544 68.1162C252.071 68.4305 251.487 68.9297 251.578 69.4737C251.985 71.9625 249.659 72.7145 248.55 74.1712C247.665 75.3409 245.882 75.3635 244.427 75.4075C242.011 75.482 239.53 75.9205 237.268 74.5175C236.482 74.0296 235.48 74.0662 234.622 74.2094C232.927 74.4978 231.386 73.9367 229.786 73.6682C228.763 73.497 228.462 72.8914 228.493 71.9373C228.536 70.4287 229.081 69.0511 229.626 67.6837C230.089 66.5143 229.994 65.4759 229.43 64.3921C229.04 63.6441 228.61 63.4069 227.907 63.9665C226.512 65.0867 225 66.0411 224.126 67.7265C222.705 70.4908 220.93 73.087 220.082 76.1024C219.406 78.5068 217.639 79.2204 215.538 79.5518C214.085 79.7813 213.593 79.3425 213.434 77.9068C213.378 77.4178 213.415 76.9274 213.381 76.4301C213.358 76.0367 213.45 75.6135 213.118 75.221C212.335 75.1245 211.857 75.8088 211.202 76.0849C210.526 76.3692 210.09 76.7283 210.585 77.5687C210.912 78.1253 210.79 78.7413 210.119 78.9746C209.512 79.1833 208.896 78.9589 208.798 78.2702C208.623 77.1006 208.051 77.5905 207.433 77.8084C205.513 78.5072 203.605 79.0734 201.47 78.9177C198.832 78.7339 196.781 77.7116 195.19 75.6533C194.843 75.1977 194.431 74.777 194.128 74.2947C192.692 72.0149 190.866 70.788 187.99 71.3632C186.385 71.6809 184.75 71.1313 183.17 70.6589C181.029 70.0293 178.957 69.9518 176.691 70.617C172.824 71.7547 169.399 71.0932 167.539 66.827C167.437 66.601 167.414 66.3106 167.243 66.1603C165.041 64.0325 166.001 61.7791 166.931 59.5126C166.986 59.3739 166.941 59.1946 166.94 58.8858C165.91 59.321 165.614 60.2494 165.127 61.0254C163.845 63.1034 162.643 65.1995 160.724 66.8452C158.41 68.8436 155.789 69.3406 152.946 68.8384C150.437 68.3892 147.939 68.044 145.396 67.9516C143.693 67.8894 143.037 67.2288 143.064 65.5745C143.077 64.9069 143.252 64.2754 143.566 63.6884C144.543 61.8896 145.404 60.0178 146.555 58.3387C147.85 56.4472 148.737 54.5162 148.644 52.0784C147.444 52.137 146.235 52.1946 145.036 52.243C144.096 52.2855 143.588 52.8537 143.193 53.6387C142.057 55.9058 140.692 58.089 139.785 60.4401C138.424 63.9615 136.553 67.2378 135.204 70.7399C134.448 72.7042 133.217 74.355 131.686 75.709C128.986 78.0816 127.476 81.1357 126.524 84.4704C124.48 91.651 121.125 98.334 118.614 105.335C118.446 105.793 118.057 106.3 118.131 106.709C118.544 108.92 116.894 110.119 115.854 111.613C114.791 113.126 112.818 113.624 111.17 112.898C110.479 112.594 110.191 112.062 110.082 111.382C109.897 110.212 110.024 109.01 110.672 108.064C113.355 104.167 114.619 99.6273 116.503 95.3745C118.558 90.7369 120.346 85.9911 121.696 81.0896C122.393 78.5741 123.803 76.3439 125.135 74.1781C124.978 73.9982 124.936 73.9015 124.874 73.8955C120.69 73.3249 121.569 73.6984 120.063 69.8165C118.887 66.7694 118.008 63.6276 116.384 60.7428C115.295 58.8156 116.272 56.9138 117.183 55.1601C117.841 53.8861 118.656 52.6993 119.525 51.281C118.533 51.2156 118.032 51.5993 117.505 51.9393C114.301 53.9954 111.585 56.5312 109.56 59.7927C108.658 61.2386 107.533 62.5497 106.523 63.9439C105.526 65.3086 103.534 65.4756 101.72 64.3322C100.431 63.5176 99.921 61.4511 101.048 60.2328C102.209 58.9767 102.757 57.4655 103.523 56.0373C103.799 55.5289 104.02 54.9534 104.426 54.5812C107.603 51.6476 108.63 47.4248 110.882 43.9385C111.1 43.5994 111.403 43.1348 111.32 42.818C110.858 41.106 112.238 40.468 113.167 39.6936C114.756 38.3761 116.813 38.7095 118.118 40.318C118.845 41.2118 118.756 42.1294 118.154 43.0281C117.661 43.7624 116.952 44.3832 116.771 45.6109C118.628 45.1427 120.394 44.7583 122.122 44.2364C124.71 43.448 125.843 43.7535 127.671 45.8141C128.106 46.3091 128.245 46.7857 127.902 47.3596C127.693 47.7098 127.363 48.0278 127.275 48.4102C126.388 52.1423 124.425 55.2966 122.128 58.2847C121.609 58.9651 121.679 59.7334 122.049 60.3764C122.916 61.8293 123.141 63.436 123.303 65.0572C123.429 66.3044 123.815 67.4224 124.666 68.6164C126.049 68.0507 127.21 67.0107 128.138 65.8246C131.586 61.4663 134.805 56.9313 137.248 51.8991C137.543 51.3 137.777 50.6949 137.799 50.0384C137.845 48.2933 138.684 46.9648 139.825 45.7067C141.704 43.6249 143.494 43.5309 145.444 45.4903C145.988 46.037 146.048 47.1132 147.144 47.0651C147.919 47.0373 148.52 46.5707 149.187 46.265C150.307 45.7562 151.513 45.5233 152.642 45.0256C154.028 44.4191 156.843 46.0609 157.209 47.4858C157.321 47.9288 157.173 48.285 156.954 48.6342C155.636 50.7602 155.155 53.1731 154.533 55.5519C153.945 57.8 153.027 59.8311 151.099 61.3524C149.662 62.4789 149.847 63.1245 151.549 63.6087C154.644 64.4853 156.108 64.2465 157.888 61.5993C159.21 59.6385 160.649 57.7506 161.847 55.6953C163.65 52.5976 166.399 50.3532 169.089 48.0825C170.088 47.2325 171.159 46.4823 172.056 45.5093C172.551 44.9707 173.122 44.388 173.871 44.3063C175.1 44.1579 176.377 44.3539 176.067 42.3581C175.97 41.7621 176.931 41.5055 177.405 41.9322C178.513 42.9145 179.346 42.1823 180.252 41.6526C180.951 41.2367 181.627 40.7363 182.376 40.4385C185.665 39.1007 189.359 40.8072 190.475 44.1572C190.913 45.4758 191.382 46.7974 191.682 48.1542C192.112 50.0895 192.2 52.0431 191.519 53.9735C191.249 54.7398 191.038 55.5426 190.918 56.3543C190.312 60.3709 188.03 63.2061 184.679 65.2891C184.46 65.4223 184.309 65.6031 184.351 65.9057C184.763 66.4396 185.393 66.0994 185.913 66.2527C187.345 66.6593 188.167 66.1421 188.746 64.7369C189.839 62.0642 192.02 60.0529 193.406 57.5425C195.265 54.1928 197.639 51.1504 198.973 47.4721C199.65 45.5824 200.91 43.9449 202.677 42.7063C204.345 41.5303 205.892 41.7112 207.465 42.5739C208.481 43.1356 209.294 43.7702 210.601 43.1354C211.411 42.7406 212.09 43.4857 211.728 44.3562C211.013 46.0981 211.529 47.8874 212.093 49.2903C212.815 51.079 212.704 52.6428 211.839 53.9276C208.75 58.5061 205.884 63.3325 200.538 65.819C199.213 66.4315 198.05 67.3787 196.801 68.1632C196.264 68.5021 196.242 68.9425 196.567 69.4063C197.652 70.9524 198.856 72.4379 200.387 73.523C201.418 74.2507 202.738 74.0083 203.931 73.5991C207.169 72.4622 209.949 70.653 212.132 67.9832C213.381 66.4578 214.733 65.0452 216.393 63.9507C217.911 62.9453 219.073 61.576 220.237 60.1864C222.552 57.4265 224.906 54.7012 226.636 51.5038C227.425 50.0572 228.54 48.8481 229.684 47.6726C230.346 46.9959 230.991 46.9247 231.876 47.3501C233.705 48.2274 235.354 49.1592 234.775 51.7376C237.057 50.5903 239.323 50.7894 241.423 51.0961C243.626 51.4127 245.872 51.9187 247.891 53.1644C248.998 53.8481 249.835 54.66 249.682 55.8183C249.52 56.9552 248.529 57.8368 247.324 58.0595C245.73 58.3679 244.088 58.6409 242.666 57.3812C241.937 56.7239 240.991 56.6115 240.12 56.8975C238.035 57.5906 235.901 58.1657 233.984 59.3588C233.14 59.8842 232.96 60.4738 233.545 61.1275C235.475 63.2907 235.828 65.7022 234.999 68.4108C234.729 69.2902 235.363 69.6501 236.1 69.5776C237.617 69.4366 238.986 69.8575 240.404 70.3038C241.793 70.7268 243.132 70.1877 244.403 69.6009C244.986 69.3281 245.287 68.7707 245.189 68.1849C244.855 66.2177 246.625 65.1545 247.112 63.5345C247.261 63.055 248.018 62.8917 248.593 62.8034C252.771 62.1693 256.113 59.8589 259.452 57.4762C262.437 55.3473 265.531 53.373 268.58 51.3327C269.153 50.9457 269.821 50.9488 270.459 50.846C271.515 50.6706 272.525 50.4495 273.431 49.8067C274.502 49.0564 275.606 48.3917 276.859 49.6865C277.336 50.1855 278.114 49.695 278.736 49.5393C280.908 49.0089 282.829 47.878 284.823 46.9497C286.289 46.2685 287.666 46.2889 289.09 46.8799C290.753 47.5661 291.584 49.1801 290.898 50.8425C290.415 51.9998 290.448 53.0424 290.855 54.2551C292.416 53.5421 293.699 52.308 295.433 52.044C297.052 51.7997 298.658 51.4718 300.284 51.2591C302.244 51.0066 304.02 51.5803 305.607 52.7222C306.954 53.6865 307.271 55.1992 307.16 56.6601C306.876 60.3272 306.399 63.9755 306.033 67.6448C305.912 68.8887 305.541 70.0568 304.943 71.1308C304.483 71.9507 304.55 72.6364 305.136 73.3828C305.724 74.119 306.354 73.8817 307.115 73.7806C309.075 73.5179 310.209 72.3312 310.819 70.6099C312.107 66.9786 313.899 63.571 315.405 60.0328C316.497 57.4835 318.06 55.3711 320.464 53.9268C321.403 53.3696 322.142 52.6488 322.426 51.5237C322.561 50.9811 322.809 50.4391 323.103 49.9531C323.702 48.982 324.298 47.9284 325.74 48.2329C327.475 48.5968 329.216 50.1755 329.339 51.4533C329.388 52.0035 329.015 52.3481 328.749 52.7546C328.084 53.7809 327.358 54.7911 327.348 56.2721C328.89 56.7099 330.58 55.9476 332.092 56.7014C332.366 56.8412 332.8 56.7187 333.042 56.8759C337.581 59.8479 341.985 58.1551 346.284 56.3801C348.192 55.5978 350.084 54.6595 351.368 52.7671C352.437 51.1932 354.133 50.2566 355.956 49.6101C356.671 49.3501 357.378 49.2746 358.13 49.3682C359.361 49.5185 360.311 50.012 360.647 51.331C360.975 52.6081 360.607 53.7559 359.345 54.4568C358.333 55.0275 357.506 55.8015 356.568 56.4515C353.855 58.3289 352.864 61.1144 352.902 64.1129C352.95 67.0196 352.525 69.8085 352.096 72.6382C351.786 74.6664 352.292 75.2816 354.279 74.9597C355.618 74.7397 356.881 75.0784 358.183 75.0297C361.098 74.9008 362.762 73.3333 362.941 70.5411C362.993 69.6817 362.867 69.0726 361.851 69.046C360.589 69.0059 359.656 68.6479 359.472 67.1481C359.277 65.5546 359.51 64.1055 360.978 63.3011C362.554 62.4351 364.165 61.6343 365.581 60.5059C365.76 60.3586 366.04 60.2314 366.253 60.2623C367.55 60.4705 368.849 60.9773 369.738 61.7941C370.399 62.4037 370.601 63.72 370.268 64.8095C369.304 67.9578 368.877 71.1993 368.317 74.4279C367.896 76.857 366.214 78.2787 364.191 79.2968C362.882 79.952 361.394 80.3325 359.903 80.2085C355.993 79.8909 352.064 80.0758 348.148 79.9223C346.631 79.8574 345.54 78.3726 345.854 76.8285C346.757 72.3982 346.998 67.9036 347.34 63.4189C347.453 61.9376 347.267 61.8373 345.881 62.1247C343.413 62.6366 340.98 63.2135 338.398 63.0969C335.18 62.9494 334.885 63.3427 334.793 66.5139C334.712 69.4699 334.388 72.3921 334.113 75.3293C333.93 77.2155 333.112 78.3299 331.303 78.8337C327.781 79.8195 324.278 80.9205 320.531 80.5056C318.515 80.2791 317.961 79.8344 318.026 77.7926C318.086 75.9975 318.22 74.1992 318.628 72.4275C319.241 69.7186 319.732 66.9876 320.274 64.2717C320.135 64.2171 319.987 64.1513 319.848 64.0967L319.784 64.1213ZM185.805 53.0487C185.595 51.2789 186.106 49.301 185.396 47.39C184.801 45.7783 184.644 45.7013 183.167 46.5048C181.319 47.5193 179.568 48.6977 177.817 49.8862C175.604 51.3696 174.587 53.4733 173.872 55.8534C173.587 56.7827 173.381 57.7404 173.124 58.683C172.634 60.4878 173.147 61.9921 174.663 63.1957C176.536 64.6742 177.422 64.6675 179.066 62.9951C180.152 61.886 181.125 60.6529 182.385 59.7563C184.652 58.1443 185.346 55.7623 185.814 53.0599L185.805 53.0487ZM326.029 63.2966C325.336 66.5123 324.887 69.6489 323.994 72.7011C323.55 74.2017 323.832 74.4863 325.471 74.6659C325.716 74.6897 325.964 74.6726 326.2 74.6852C328.252 74.8534 328.266 74.8136 328.854 72.7917C329.455 70.73 329.434 68.608 329.495 66.4939C329.59 63.179 329.601 63.18 326.029 63.2966ZM205.387 48.506C204.315 49.4825 203.592 50.4621 203.297 51.8023C202.899 53.5749 202.018 55.1258 201.007 56.6332C200.128 57.9476 198.995 59.1241 198.4 60.5895C198.818 60.8461 199.009 60.6794 199.169 60.5199C201.538 58.1666 203.921 55.8764 205.154 52.6102C205.68 51.2204 205.896 50.0476 205.386 48.5162L205.387 48.506Z"/>
    </mask>
    <path d="M319.784 64.1213C319.265 65.1207 318.708 66.0855 318.259 67.1122C317.703 68.3859 317.116 69.6668 316.77 71.002C315.323 76.4807 311.191 78.4366 306.169 79.3902C302.877 80.0177 298.144 75.864 298.812 72.5943C299.382 69.7887 299.993 66.9972 300.552 64.2007C300.935 62.2722 300.858 60.2991 300.925 58.34C300.943 57.7345 300.851 57.1905 300.103 57.0561C298.058 56.7034 295.481 57.5957 294.721 59.4877C293.341 62.894 290.412 65.5018 289.723 69.2118C289.383 71.021 288.61 72.6235 287.785 74.2313C286.961 75.8288 283.899 76.8388 282.263 76.0935C281.603 75.7927 281.22 75.2822 281.196 74.58C281.181 74.0949 281.173 73.5384 281.387 73.1372C283.173 69.6879 283.293 65.6859 285.099 62.2488C285.426 61.6322 285.508 61.002 285.417 60.3449C285.164 58.3958 284.93 56.4487 284.895 54.4797C284.878 53.7061 284.695 52.9371 283.576 53.3328C280.783 54.3277 278.193 55.7746 275.916 57.6119C273.705 59.394 273.062 62.2029 272.521 64.8056C271.949 67.5287 271.125 70.1863 270.653 72.9295C270.436 74.2052 270.646 75.5429 270.124 76.7889C269.653 77.9268 268.222 79.1052 267.214 79.1C265.281 79.0772 264.283 78.435 263.743 77.0035C263.457 76.2348 263.739 75.5623 263.88 74.8454C264.864 69.6922 266.087 64.6137 267.844 59.659C267.889 59.5193 267.844 59.34 267.822 58.9365C266.284 59.7238 264.636 60.1608 263.445 61.3008C261.392 63.2628 259.055 64.7548 256.408 65.6199C254.835 66.1362 253.81 67.2614 252.544 68.1162C252.071 68.4305 251.487 68.9297 251.578 69.4737C251.985 71.9625 249.659 72.7145 248.55 74.1712C247.665 75.3409 245.882 75.3635 244.427 75.4075C242.011 75.482 239.53 75.9205 237.268 74.5175C236.482 74.0296 235.48 74.0662 234.622 74.2094C232.927 74.4978 231.386 73.9367 229.786 73.6682C228.763 73.497 228.462 72.8914 228.493 71.9373C228.536 70.4287 229.081 69.0511 229.626 67.6837C230.089 66.5143 229.994 65.4759 229.43 64.3921C229.04 63.6441 228.61 63.4069 227.907 63.9665C226.512 65.0867 225 66.0411 224.126 67.7265C222.705 70.4908 220.93 73.087 220.082 76.1024C219.406 78.5068 217.639 79.2204 215.538 79.5518C214.085 79.7813 213.593 79.3425 213.434 77.9068C213.378 77.4178 213.415 76.9274 213.381 76.4301C213.358 76.0367 213.45 75.6135 213.118 75.221C212.335 75.1245 211.857 75.8088 211.202 76.0849C210.526 76.3692 210.09 76.7283 210.585 77.5687C210.912 78.1253 210.79 78.7413 210.119 78.9746C209.512 79.1833 208.896 78.9589 208.798 78.2702C208.623 77.1006 208.051 77.5905 207.433 77.8084C205.513 78.5072 203.605 79.0734 201.47 78.9177C198.832 78.7339 196.781 77.7116 195.19 75.6533C194.843 75.1977 194.431 74.777 194.128 74.2947C192.692 72.0149 190.866 70.788 187.99 71.3632C186.385 71.6809 184.75 71.1313 183.17 70.6589C181.029 70.0293 178.957 69.9518 176.691 70.617C172.824 71.7547 169.399 71.0932 167.539 66.827C167.437 66.601 167.414 66.3106 167.243 66.1603C165.041 64.0325 166.001 61.7791 166.931 59.5126C166.986 59.3739 166.941 59.1946 166.94 58.8858C165.91 59.321 165.614 60.2494 165.127 61.0254C163.845 63.1034 162.643 65.1995 160.724 66.8452C158.41 68.8436 155.789 69.3406 152.946 68.8384C150.437 68.3892 147.939 68.044 145.396 67.9516C143.693 67.8894 143.037 67.2288 143.064 65.5745C143.077 64.9069 143.252 64.2754 143.566 63.6884C144.543 61.8896 145.404 60.0178 146.555 58.3387C147.85 56.4472 148.737 54.5162 148.644 52.0784C147.444 52.137 146.235 52.1946 145.036 52.243C144.096 52.2855 143.588 52.8537 143.193 53.6387C142.057 55.9058 140.692 58.089 139.785 60.4401C138.424 63.9615 136.553 67.2378 135.204 70.7399C134.448 72.7042 133.217 74.355 131.686 75.709C128.986 78.0816 127.476 81.1357 126.524 84.4704C124.48 91.651 121.125 98.334 118.614 105.335C118.446 105.793 118.057 106.3 118.131 106.709C118.544 108.92 116.894 110.119 115.854 111.613C114.791 113.126 112.818 113.624 111.17 112.898C110.479 112.594 110.191 112.062 110.082 111.382C109.897 110.212 110.024 109.01 110.672 108.064C113.355 104.167 114.619 99.6273 116.503 95.3745C118.558 90.7369 120.346 85.9911 121.696 81.0896C122.393 78.5741 123.803 76.3439 125.135 74.1781C124.978 73.9982 124.936 73.9015 124.874 73.8955C120.69 73.3249 121.569 73.6984 120.063 69.8165C118.887 66.7694 118.008 63.6276 116.384 60.7428C115.295 58.8156 116.272 56.9138 117.183 55.1601C117.841 53.8861 118.656 52.6993 119.525 51.281C118.533 51.2156 118.032 51.5993 117.505 51.9393C114.301 53.9954 111.585 56.5312 109.56 59.7927C108.658 61.2386 107.533 62.5497 106.523 63.9439C105.526 65.3086 103.534 65.4756 101.72 64.3322C100.431 63.5176 99.921 61.4511 101.048 60.2328C102.209 58.9767 102.757 57.4655 103.523 56.0373C103.799 55.5289 104.02 54.9534 104.426 54.5812C107.603 51.6476 108.63 47.4248 110.882 43.9385C111.1 43.5994 111.403 43.1348 111.32 42.818C110.858 41.106 112.238 40.468 113.167 39.6936C114.756 38.3761 116.813 38.7095 118.118 40.318C118.845 41.2118 118.756 42.1294 118.154 43.0281C117.661 43.7624 116.952 44.3832 116.771 45.6109C118.628 45.1427 120.394 44.7583 122.122 44.2364C124.71 43.448 125.843 43.7535 127.671 45.8141C128.106 46.3091 128.245 46.7857 127.902 47.3596C127.693 47.7098 127.363 48.0278 127.275 48.4102C126.388 52.1423 124.425 55.2966 122.128 58.2847C121.609 58.9651 121.679 59.7334 122.049 60.3764C122.916 61.8293 123.141 63.436 123.303 65.0572C123.429 66.3044 123.815 67.4224 124.666 68.6164C126.049 68.0507 127.21 67.0107 128.138 65.8246C131.586 61.4663 134.805 56.9313 137.248 51.8991C137.543 51.3 137.777 50.6949 137.799 50.0384C137.845 48.2933 138.684 46.9648 139.825 45.7067C141.704 43.6249 143.494 43.5309 145.444 45.4903C145.988 46.037 146.048 47.1132 147.144 47.0651C147.919 47.0373 148.52 46.5707 149.187 46.265C150.307 45.7562 151.513 45.5233 152.642 45.0256C154.028 44.4191 156.843 46.0609 157.209 47.4858C157.321 47.9288 157.173 48.285 156.954 48.6342C155.636 50.7602 155.155 53.1731 154.533 55.5519C153.945 57.8 153.027 59.8311 151.099 61.3524C149.662 62.4789 149.847 63.1245 151.549 63.6087C154.644 64.4853 156.108 64.2465 157.888 61.5993C159.21 59.6385 160.649 57.7506 161.847 55.6953C163.65 52.5976 166.399 50.3532 169.089 48.0825C170.088 47.2325 171.159 46.4823 172.056 45.5093C172.551 44.9707 173.122 44.388 173.871 44.3063C175.1 44.1579 176.377 44.3539 176.067 42.3581C175.97 41.7621 176.931 41.5055 177.405 41.9322C178.513 42.9145 179.346 42.1823 180.252 41.6526C180.951 41.2367 181.627 40.7363 182.376 40.4385C185.665 39.1007 189.359 40.8072 190.475 44.1572C190.913 45.4758 191.382 46.7974 191.682 48.1542C192.112 50.0895 192.2 52.0431 191.519 53.9735C191.249 54.7398 191.038 55.5426 190.918 56.3543C190.312 60.3709 188.03 63.2061 184.679 65.2891C184.46 65.4223 184.309 65.6031 184.351 65.9057C184.763 66.4396 185.393 66.0994 185.913 66.2527C187.345 66.6593 188.167 66.1421 188.746 64.7369C189.839 62.0642 192.02 60.0529 193.406 57.5425C195.265 54.1928 197.639 51.1504 198.973 47.4721C199.65 45.5824 200.91 43.9449 202.677 42.7063C204.345 41.5303 205.892 41.7112 207.465 42.5739C208.481 43.1356 209.294 43.7702 210.601 43.1354C211.411 42.7406 212.09 43.4857 211.728 44.3562C211.013 46.0981 211.529 47.8874 212.093 49.2903C212.815 51.079 212.704 52.6428 211.839 53.9276C208.75 58.5061 205.884 63.3325 200.538 65.819C199.213 66.4315 198.05 67.3787 196.801 68.1632C196.264 68.5021 196.242 68.9425 196.567 69.4063C197.652 70.9524 198.856 72.4379 200.387 73.523C201.418 74.2507 202.738 74.0083 203.931 73.5991C207.169 72.4622 209.949 70.653 212.132 67.9832C213.381 66.4578 214.733 65.0452 216.393 63.9507C217.911 62.9453 219.073 61.576 220.237 60.1864C222.552 57.4265 224.906 54.7012 226.636 51.5038C227.425 50.0572 228.54 48.8481 229.684 47.6726C230.346 46.9959 230.991 46.9247 231.876 47.3501C233.705 48.2274 235.354 49.1592 234.775 51.7376C237.057 50.5903 239.323 50.7894 241.423 51.0961C243.626 51.4127 245.872 51.9187 247.891 53.1644C248.998 53.8481 249.835 54.66 249.682 55.8183C249.52 56.9552 248.529 57.8368 247.324 58.0595C245.73 58.3679 244.088 58.6409 242.666 57.3812C241.937 56.7239 240.991 56.6115 240.12 56.8975C238.035 57.5906 235.901 58.1657 233.984 59.3588C233.14 59.8842 232.96 60.4738 233.545 61.1275C235.475 63.2907 235.828 65.7022 234.999 68.4108C234.729 69.2902 235.363 69.6501 236.1 69.5776C237.617 69.4366 238.986 69.8575 240.404 70.3038C241.793 70.7268 243.132 70.1877 244.403 69.6009C244.986 69.3281 245.287 68.7707 245.189 68.1849C244.855 66.2177 246.625 65.1545 247.112 63.5345C247.261 63.055 248.018 62.8917 248.593 62.8034C252.771 62.1693 256.113 59.8589 259.452 57.4762C262.437 55.3473 265.531 53.373 268.58 51.3327C269.153 50.9457 269.821 50.9488 270.459 50.846C271.515 50.6706 272.525 50.4495 273.431 49.8067C274.502 49.0564 275.606 48.3917 276.859 49.6865C277.336 50.1855 278.114 49.695 278.736 49.5393C280.908 49.0089 282.829 47.878 284.823 46.9497C286.289 46.2685 287.666 46.2889 289.09 46.8799C290.753 47.5661 291.584 49.1801 290.898 50.8425C290.415 51.9998 290.448 53.0424 290.855 54.2551C292.416 53.5421 293.699 52.308 295.433 52.044C297.052 51.7997 298.658 51.4718 300.284 51.2591C302.244 51.0066 304.02 51.5803 305.607 52.7222C306.954 53.6865 307.271 55.1992 307.16 56.6601C306.876 60.3272 306.399 63.9755 306.033 67.6448C305.912 68.8887 305.541 70.0568 304.943 71.1308C304.483 71.9507 304.55 72.6364 305.136 73.3828C305.724 74.119 306.354 73.8817 307.115 73.7806C309.075 73.5179 310.209 72.3312 310.819 70.6099C312.107 66.9786 313.899 63.571 315.405 60.0328C316.497 57.4835 318.06 55.3711 320.464 53.9268C321.403 53.3696 322.142 52.6488 322.426 51.5237C322.561 50.9811 322.809 50.4391 323.103 49.9531C323.702 48.982 324.298 47.9284 325.74 48.2329C327.475 48.5968 329.216 50.1755 329.339 51.4533C329.388 52.0035 329.015 52.3481 328.749 52.7546C328.084 53.7809 327.358 54.7911 327.348 56.2721C328.89 56.7099 330.58 55.9476 332.092 56.7014C332.366 56.8412 332.8 56.7187 333.042 56.8759C337.581 59.8479 341.985 58.1551 346.284 56.3801C348.192 55.5978 350.084 54.6595 351.368 52.7671C352.437 51.1932 354.133 50.2566 355.956 49.6101C356.671 49.3501 357.378 49.2746 358.13 49.3682C359.361 49.5185 360.311 50.012 360.647 51.331C360.975 52.6081 360.607 53.7559 359.345 54.4568C358.333 55.0275 357.506 55.8015 356.568 56.4515C353.855 58.3289 352.864 61.1144 352.902 64.1129C352.95 67.0196 352.525 69.8085 352.096 72.6382C351.786 74.6664 352.292 75.2816 354.279 74.9597C355.618 74.7397 356.881 75.0784 358.183 75.0297C361.098 74.9008 362.762 73.3333 362.941 70.5411C362.993 69.6817 362.867 69.0726 361.851 69.046C360.589 69.0059 359.656 68.6479 359.472 67.1481C359.277 65.5546 359.51 64.1055 360.978 63.3011C362.554 62.4351 364.165 61.6343 365.581 60.5059C365.76 60.3586 366.04 60.2314 366.253 60.2623C367.55 60.4705 368.849 60.9773 369.738 61.7941C370.399 62.4037 370.601 63.72 370.268 64.8095C369.304 67.9578 368.877 71.1993 368.317 74.4279C367.896 76.857 366.214 78.2787 364.191 79.2968C362.882 79.952 361.394 80.3325 359.903 80.2085C355.993 79.8909 352.064 80.0758 348.148 79.9223C346.631 79.8574 345.54 78.3726 345.854 76.8285C346.757 72.3982 346.998 67.9036 347.34 63.4189C347.453 61.9376 347.267 61.8373 345.881 62.1247C343.413 62.6366 340.98 63.2135 338.398 63.0969C335.18 62.9494 334.885 63.3427 334.793 66.5139C334.712 69.4699 334.388 72.3921 334.113 75.3293C333.93 77.2155 333.112 78.3299 331.303 78.8337C327.781 79.8195 324.278 80.9205 320.531 80.5056C318.515 80.2791 317.961 79.8344 318.026 77.7926C318.086 75.9975 318.22 74.1992 318.628 72.4275C319.241 69.7186 319.732 66.9876 320.274 64.2717C320.135 64.2171 319.987 64.1513 319.848 64.0967L319.784 64.1213ZM185.805 53.0487C185.595 51.2789 186.106 49.301 185.396 47.39C184.801 45.7783 184.644 45.7013 183.167 46.5048C181.319 47.5193 179.568 48.6977 177.817 49.8862C175.604 51.3696 174.587 53.4733 173.872 55.8534C173.587 56.7827 173.381 57.7404 173.124 58.683C172.634 60.4878 173.147 61.9921 174.663 63.1957C176.536 64.6742 177.422 64.6675 179.066 62.9951C180.152 61.886 181.125 60.6529 182.385 59.7563C184.652 58.1443 185.346 55.7623 185.814 53.0599L185.805 53.0487ZM326.029 63.2966C325.336 66.5123 324.887 69.6489 323.994 72.7011C323.55 74.2017 323.832 74.4863 325.471 74.6659C325.716 74.6897 325.964 74.6726 326.2 74.6852C328.252 74.8534 328.266 74.8136 328.854 72.7917C329.455 70.73 329.434 68.608 329.495 66.4939C329.59 63.179 329.601 63.18 326.029 63.2966ZM205.387 48.506C204.315 49.4825 203.592 50.4621 203.297 51.8023C202.899 53.5749 202.018 55.1258 201.007 56.6332C200.128 57.9476 198.995 59.1241 198.4 60.5895C198.818 60.8461 199.009 60.6794 199.169 60.5199C201.538 58.1666 203.921 55.8764 205.154 52.6102C205.68 51.2204 205.896 50.0476 205.386 48.5162L205.387 48.506Z" stroke="#242424" stroke-width="2" mask="url(#path-4-outside-1_0_1)"/>
</svg>
