<svg width="392" height="129" viewBox="0 0 392 129" fill="none" xmlns="http://www.w3.org/2000/svg">
    <path d="M31.08 115.97H13V112.56C13.51 112.5 14.25 112.4 15.21 112.27C16.17 112.14 16.85 111.95 17.25 111.69C17.87 111.27 18.33 110.71 18.61 109.99C18.89 109.27 19.03 108.27 19.03 106.99V57.6805C19.03 56.5605 18.93 55.6305 18.72 54.8705C18.51 54.1205 18.02 53.4905 17.25 52.9705C16.68 52.5905 15.97 52.2305 15.11 51.8905C14.25 51.5505 13.55 51.3505 13 51.2905V47.9005H31.08V51.3105C30.5 51.3405 29.8 51.4605 28.99 51.6705C28.18 51.8805 27.47 52.1405 26.87 52.4605C26.15 52.8405 25.67 53.4705 25.43 54.3305C25.18 55.1905 25.06 56.1505 25.06 57.2105V106.48C25.06 107.54 25.2 108.47 25.47 109.29C25.74 110.11 26.21 110.75 26.87 111.23C27.27 111.49 27.91 111.77 28.81 112.07C29.71 112.37 30.47 112.54 31.09 112.57V115.98L31.08 115.97Z" fill="#242424"/>
    <path d="M77.3303 51.3005C76.8003 51.3305 75.9903 51.5905 74.9003 52.0705C73.8103 52.5505 73.0203 53.0505 72.5503 53.5605C71.8703 54.3605 71.4103 55.9005 71.1803 58.1705C70.9403 60.4405 70.8303 63.3205 70.8303 66.8105V116.66H68.3703L44.0203 60.9505V96.0705C44.0203 100 44.1703 103.03 44.4603 105.14C44.7503 107.25 45.2003 108.75 45.8003 109.65C46.2303 110.35 47.1303 111.01 48.4903 111.62C49.8503 112.23 50.7403 112.55 51.1803 112.58V115.99H34.7103V112.58C35.2203 112.52 36.0803 112.2 37.2903 111.64C38.5003 111.08 39.2503 110.58 39.5503 110.13C40.2103 109.23 40.6603 107.87 40.9103 106.03C41.1603 104.19 41.2803 101.05 41.2803 96.6005V63.0605C41.2803 61.5905 41.1303 60.1205 40.8303 58.6505C40.5303 57.1805 40.1203 56.0405 39.6103 55.2405C38.9303 54.1805 38.0103 53.2805 36.8503 52.5305C35.6903 51.7805 34.7503 51.3705 34.0303 51.3105V47.9005H45.5003L68.0703 99.8005V67.4205C68.0703 63.4505 67.9203 60.4105 67.6203 58.2805C67.3203 56.1505 66.8803 54.7405 66.3203 54.0305C65.7903 53.4205 64.9303 52.8305 63.7303 52.2605C62.5303 51.6905 61.6203 51.3605 61.0003 51.3005V47.9005H77.3303V51.3105V51.3005Z" fill="#242424"/>
    <path d="M105.58 84.7399C106.43 86.3399 107.06 88.0899 107.46 89.9899C107.87 91.8899 108.07 94.1099 108.07 96.6299C108.07 102.64 106.76 107.6 104.14 111.5C101.52 115.4 98.26 117.35 94.38 117.35C92.59 117.35 90.8 116.88 89 115.93C87.21 114.99 85.66 113.84 84.36 112.5L83.14 116H80.88L80.48 92.6799H82.77C83.24 95.5599 83.79 98.1599 84.43 100.48C85.06 102.8 85.9 104.97 86.93 106.98C87.91 108.87 89.06 110.37 90.37 111.49C91.68 112.61 93.2 113.17 94.94 113.17C96.24 113.17 97.38 112.88 98.35 112.31C99.32 111.73 100.11 110.92 100.71 109.86C101.31 108.8 101.76 107.56 102.05 106.14C102.34 104.71 102.49 103.07 102.49 101.22C102.49 98.4999 102.04 95.9599 101.13 93.6099C100.22 91.2599 98.88 89.4699 97.08 88.2499C95.85 87.4199 94.45 86.5099 92.86 85.4999C91.27 84.4899 89.91 83.5499 88.76 82.6599C86.5 80.9299 84.74 78.6699 83.48 75.8699C82.23 73.0699 81.6 69.4199 81.6 64.9099C81.6 62.3199 81.91 59.9099 82.53 57.6699C83.15 55.4299 84.04 53.4299 85.19 51.6699C86.28 50.0099 87.58 48.6999 89.07 47.7599C90.56 46.8199 92.12 46.3399 93.74 46.3399C95.59 46.3399 97.24 46.8199 98.71 47.7799C100.17 48.7399 101.51 49.8599 102.71 51.1399L103.87 47.8799H106.13L106.36 70.4799H104.07C103.65 67.8899 103.19 65.4099 102.67 63.0399C102.15 60.6699 101.48 58.5299 100.65 56.6099C99.84 54.7599 98.85 53.2799 97.68 52.1699C96.51 51.0599 95.08 50.5199 93.38 50.5199C91.59 50.5199 90.06 51.4999 88.8 53.4499C87.54 55.3999 86.9 57.7799 86.9 60.5999C86.9 63.4199 87.31 65.9799 88.12 67.9199C88.93 69.8599 90.11 71.4499 91.66 72.6899C93.04 73.8099 94.39 74.7799 95.72 75.5899C97.05 76.3999 98.34 77.2799 99.58 78.1999C100.71 79.0299 101.8 79.9699 102.85 81.0299C103.9 82.0899 104.81 83.3199 105.58 84.7199V84.7399Z" fill="#242424"/>
    <path d="M186.41 115.97H169.72V112.56C171.19 112.4 172.41 112.08 173.38 111.6C174.35 111.12 174.84 110.53 174.84 109.83C174.84 109.54 174.82 109.19 174.78 108.77C174.74 108.35 174.69 107.99 174.61 107.67L171.28 92.4095H157.18C156.65 94.6495 156.22 96.5995 155.89 98.2595C155.56 99.9195 155.26 101.46 155 102.87C154.75 104.25 154.58 105.36 154.49 106.23C154.4 107.09 154.35 107.8 154.35 108.34C154.35 109.62 154.94 110.61 156.13 111.31C157.32 112.01 158.66 112.43 160.15 112.56V115.97H145.03V112.56C145.52 112.5 146.13 112.31 146.87 112.01C147.61 111.71 148.21 111.3 148.68 110.79C149.43 109.93 150.02 109.02 150.43 108.08C150.84 107.14 151.25 105.83 151.65 104.17C153.67 95.6295 155.9 86.0395 158.33 75.3895C160.76 64.7395 162.93 55.2595 164.84 46.9395H167.1L180.49 105.66C180.77 106.91 181.09 107.91 181.45 108.68C181.81 109.45 182.31 110.2 182.95 110.93C183.38 111.38 183.95 111.75 184.65 112.06C185.35 112.36 185.93 112.53 186.4 112.56V115.97H186.41ZM170.25 88.1495L164.17 61.7295L158.17 88.1495H170.25Z" fill="#242424"/>
    <path d="M136.544 61.9883C136.618 58.3149 136.425 58.1945 133.361 58.9171C129.746 59.7602 126.311 60.9796 123.113 62.9518C120.763 64.397 118.085 65.1196 115.468 65.8874C112.181 66.8509 110.247 65.9476 108.745 62.8464C107.644 60.5731 106.35 58.4354 104.982 56.3277C102.84 53.0308 104.342 50.0951 108.165 49.7187C109.102 49.6284 110.128 49.6886 110.976 49.3273C116.895 46.8734 123.217 46.5121 129.419 45.5034C131.546 45.1572 133.688 44.841 135.547 43.727C137.02 42.8538 138.209 42.9742 139.384 44.1636C141.66 46.4669 144.263 46.9938 147.505 46.5573C155.537 45.5034 163.629 45.8798 171.705 46.0755C174.129 46.1357 175.765 47.1594 176.643 49.4477C177.446 51.5253 176.881 52.6996 174.784 53.2114C173.505 53.5276 172.196 53.4673 170.887 53.3017C165.161 52.5791 159.523 52.7899 153.931 54.4459C150.852 55.3642 147.773 56.2976 144.575 56.7041C142.672 56.945 141.675 57.8784 141.63 60.0161C141.363 72.9179 137.719 85.1273 133.732 97.2312C132.795 100.077 132.394 102.726 133.257 105.647C133.747 107.288 134.759 109.245 133.39 110.826C131.606 112.888 129.731 115.011 127.054 115.914C125.135 116.561 124.198 115.854 123.886 113.716C123.678 112.271 123.782 110.841 124.094 109.41C125.121 104.713 126.474 100.167 128.437 95.7257C130.222 91.7061 131.382 87.3403 132.394 83.0196C133.822 76.9526 135.443 70.9006 136.216 64.6831C136.35 63.6142 136.469 62.5302 136.529 61.9582L136.544 61.9883ZM114.798 60.3022C118.77 58.7967 123.098 56.8998 127.158 54.476C127.813 54.0846 128.051 53.362 127.768 52.5942C127.471 51.7963 126.772 51.5253 126.043 51.6758C121.655 52.6544 117.148 52.9705 112.835 54.3706C111.169 54.9126 111.006 55.9514 111.318 57.4267C111.794 59.5946 112.537 60.3624 114.783 60.3022H114.798Z" fill="#242424"/>
    <path d="M226.71 88.8202C226.26 88.9202 225.65 89.0702 224.88 89.2802C224.12 89.4902 223.5 89.7802 223.03 90.1702C222.46 90.6502 222.06 91.3302 221.83 92.2102C221.59 93.0902 221.48 94.1202 221.48 95.3002V100.58C221.48 104.42 221.49 107.01 221.52 108.35C221.55 109.69 221.58 110.8 221.62 111.66C219.11 113.58 216.61 115.05 214.12 116.07C211.63 117.09 209.19 117.61 206.79 117.61C204.22 117.61 201.75 116.79 199.37 115.16C196.99 113.53 194.92 111.21 193.14 108.2C191.35 105.16 189.92 101.46 188.87 97.1102C187.81 92.7602 187.29 87.8902 187.29 82.5202C187.29 77.1502 187.79 72.5302 188.8 68.0902C189.81 63.6602 191.24 59.8102 193.09 56.5402C194.88 53.3402 197.02 50.8502 199.5 49.0802C201.98 47.3002 204.64 46.4102 207.47 46.4102C209.73 46.4102 211.71 46.8702 213.39 47.8002C215.07 48.7302 216.55 49.8502 217.83 51.1602L218.99 47.9002H221.25L221.5 71.7002H219.18C218.78 69.0802 218.29 66.4902 217.71 63.9502C217.13 61.4102 216.37 59.1302 215.44 57.1102C214.51 55.1002 213.39 53.4902 212.05 52.2902C210.72 51.0902 209.13 50.4902 207.28 50.4902C205.26 50.4902 203.45 51.1902 201.87 52.5802C200.28 53.9702 198.9 56.0402 197.73 58.8002C196.58 61.4602 195.69 64.7702 195.07 68.7402C194.45 72.7102 194.14 77.1402 194.14 82.0402C194.14 86.3602 194.45 90.4302 195.06 94.2602C195.67 98.0802 196.57 101.39 197.74 104.17C198.91 107.02 200.37 109.26 202.13 110.89C203.89 112.52 205.88 113.34 208.11 113.34C209.77 113.34 211.29 112.91 212.66 112.04C214.03 111.18 215 110.27 215.56 109.31C215.71 107.65 215.79 105.97 215.8 104.27C215.8 102.58 215.81 101.14 215.81 99.9502V96.2102C215.81 94.8702 215.7 93.6802 215.48 92.6402C215.26 91.6002 214.81 90.8402 214.14 90.3602C213.52 89.8802 212.67 89.5202 211.61 89.2802C210.54 89.0402 209.71 88.8902 209.11 88.8202V85.3202H226.71V88.8202Z" fill="#242424"/>
    <path d="M308 115.97H291.31V112.56C292.78 112.4 294 112.08 294.97 111.6C295.94 111.12 296.43 110.53 296.43 109.83C296.43 109.54 296.41 109.19 296.37 108.77C296.33 108.35 296.28 107.99 296.2 107.67L292.87 92.4095H278.77C278.24 94.6495 277.81 96.5995 277.48 98.2595C277.15 99.9195 276.85 101.46 276.59 102.87C276.34 104.25 276.17 105.36 276.08 106.23C275.99 107.09 275.94 107.8 275.94 108.34C275.94 109.62 276.53 110.61 277.72 111.31C278.91 112.01 280.25 112.43 281.74 112.56V115.97H266.62V112.56C267.11 112.5 267.72 112.31 268.46 112.01C269.2 111.71 269.8 111.3 270.27 110.79C271.02 109.93 271.61 109.02 272.02 108.08C272.43 107.14 272.84 105.83 273.24 104.17C275.26 95.6295 277.49 86.0395 279.92 75.3895C282.35 64.7395 284.52 55.2595 286.43 46.9395H288.69L302.08 105.66C302.36 106.91 302.68 107.91 303.04 108.68C303.4 109.45 303.9 110.2 304.54 110.93C304.97 111.38 305.54 111.75 306.24 112.06C306.94 112.36 307.52 112.53 307.99 112.56V115.97H308ZM291.84 88.1495L285.76 61.7295L279.76 88.1495H291.84Z" fill="#242424"/>
    <path d="M357.78 115.97H340.03V112.56C340.67 112.53 341.5 112.42 342.51 112.22C343.52 112.03 344.21 111.76 344.59 111.4C345.17 110.79 345.6 110.1 345.88 109.31C346.15 108.53 346.29 107.54 346.29 106.36V56.8705H345.87L332.17 114.87H330.75L317.7 55.6705H317.33V96.3005C317.33 100.23 317.48 103.22 317.77 105.27C318.06 107.32 318.51 108.79 319.11 109.68C319.53 110.35 320.38 110.99 321.69 111.6C322.99 112.21 323.84 112.53 324.24 112.56V115.97H308.02V112.56C308.87 112.43 309.76 112.19 310.69 111.84C311.62 111.49 312.35 110.96 312.86 110.26C313.52 109.36 313.97 107.99 314.22 106.13C314.47 104.28 314.59 101.17 314.59 96.8205V62.0005C314.59 59.9805 314.45 58.3405 314.17 57.0605C313.89 55.7805 313.48 54.7405 312.95 53.9405C312.37 53.0805 311.65 52.4405 310.8 52.0205C309.95 51.6005 309.11 51.3705 308.28 51.3005V47.9005H321.97L333.47 99.0005L343.29 56.2505C343.65 54.6805 343.95 53.0405 344.21 51.3305C344.46 49.6205 344.6 48.4705 344.62 47.9005H357.72V51.3105C357.19 51.3405 356.52 51.4905 355.7 51.7405C354.88 52.0005 354.28 52.2405 353.9 52.4605C353.26 52.8405 352.82 53.4805 352.6 54.3805C352.37 55.2805 352.26 56.2505 352.26 57.3105V106.39C352.26 107.51 352.37 108.45 352.6 109.22C352.83 109.99 353.26 110.66 353.9 111.23C354.24 111.55 354.84 111.85 355.71 112.12C356.58 112.39 357.27 112.54 357.78 112.58V115.99V115.97Z" fill="#242424"/>
    <path d="M231.565 102.372C232.125 106.321 231.019 109.598 230.793 112.941C230.7 114.231 229.954 115.087 228.543 115.139C227.278 115.192 226.253 114.205 226.053 112.757C226 112.349 225.96 111.888 226.08 111.507C227.677 105.86 227.211 100.003 227.691 94.2506C228.263 87.4983 229.994 80.9961 231.339 74.4018C232.551 68.5313 233.749 62.6609 234.96 56.7905C235.267 55.29 234.921 53.3551 236.572 52.5785C238.555 51.644 240.699 50.8411 243.016 51.3018C251.497 52.9602 257.076 56.4219 262.894 62.8847C265.53 65.8199 265.224 68.9262 264.652 72.2036C264.519 72.9671 263.24 73.0329 262.615 73.7305C259.978 76.7447 256.437 78.0609 252.536 78.64C251.55 78.7848 250.632 78.5742 249.686 78.4689C248.981 78.39 248.102 78.0609 247.649 78.8375C247.21 79.5746 247.849 80.2327 248.182 80.8645C248.568 81.6147 248.994 82.3387 249.42 83.0758C251.75 87.1035 253.681 91.3154 255.491 95.58C257.275 99.7788 260.138 103.372 262.282 107.36C263.773 110.151 265.304 112.928 266.849 115.679C267.98 117.706 269.099 119.72 270.856 121.339C271.775 122.194 272.494 123.287 272.88 124.511C273.319 125.919 272.614 126.959 271.549 127.788C270.59 128.539 269.725 127.973 268.912 127.473C267.608 126.67 266.649 125.551 266.023 124.182C262.921 117.495 259.459 110.98 255.611 104.675C251.87 98.5416 249.007 91.9472 245.772 85.5503C244.108 82.2597 242.417 78.9559 239.141 76.85C238.875 76.6788 238.675 76.4156 238.476 76.1655C236.851 74.2043 236.638 72.0852 237.903 70.7689C239.101 69.5185 241.245 69.8739 243.269 71.664C246.93 74.9019 254.852 74.4281 258.088 70.7821C260.271 68.3207 260.231 66.6623 257.955 64.2141C255.997 62.1212 253.721 60.3838 251.404 58.699C249.606 57.3959 247.583 56.9353 245.372 57.1722C244.427 57.2775 243.468 57.2643 242.51 57.2643C239.767 57.2512 239.168 57.6197 238.609 60.3312C236.492 70.6241 234.295 80.9171 232.417 91.2496C231.725 95.0536 231.818 99.0023 231.579 102.346L231.565 102.372Z" fill="#242424"/>
    <path d="M387.172 42.7921C387.012 42.6967 386.852 42.6012 385.218 41.1929C383.584 39.7846 380.481 37.0663 378.764 35.5297C377.609 34.4955 376.812 33.6451 376.228 32.9308M376.228 32.9308C375.908 32.5401 375.653 32.1902 375.437 31.8731M376.228 32.9308C376.241 33.0416 376.257 33.1518 376.276 33.2613C376.41 34.0335 376.754 36.1336 376.061 39.611C375.275 43.5575 374.672 46.0185 374.461 46.7973M376.228 32.9308C376.166 32.4047 376.172 31.862 376.223 31.2925M375.437 31.8731C375.139 31.4346 374.918 31.0589 374.71 30.7253C373.974 29.5432 371.927 27.0807 370.267 25.5418C369.19 24.5438 368.324 23.9362 367.687 23.3929C367.566 23.2552 367.49 23.078 367.391 22.866C367.292 22.654 367.171 22.4126 366.697 22.0694M375.437 31.8731C375.058 32.159 374.637 32.4836 374.168 32.8539C372.275 34.3499 369.325 36.7911 367.684 38.1551C366.043 39.5191 365.72 39.7975 365.397 40.0758M375.437 31.8731C375.722 31.6587 375.983 31.4661 376.223 31.2925M376.223 31.2925C377.422 30.4248 378.093 30.0305 378.529 29.7534C380.051 28.7864 382.218 28.4805 383.403 28.1407C384.539 27.8152 385.203 27.3877 385.941 27.0847C386.687 26.7786 387.126 26.0617 387.829 25.5379C388.372 24.9187 388.81 24.4578 389.045 24.0474C389.158 23.8649 389.255 23.7344 389.395 23.4526M376.223 31.2925C376.351 29.8592 376.765 28.2558 377.117 26.3197C377.48 24.325 377.172 23.1108 377.182 22.0311C377.173 20.7879 377.181 19.8406 377.083 19.1542C377.1 18.9736 377.153 18.7789 377.032 18.5311" stroke="#242424" stroke-width="4" stroke-linecap="round"/>
    <mask id="path-3-outside-1_0_1" maskUnits="userSpaceOnUse" x="-0.000325221" y="-0.000547146" width="348.024" height="75.1132" fill="black">
        <rect fill="white" x="-0.000325221" y="-0.000547146" width="348.024" height="75.1132"/>
        <path d="M19.7775 23.5702C19.5513 23.2029 19.3348 23.3725 19.137 23.4197C18.1105 23.6461 17.6393 23.0246 17.7521 22.1863C17.8742 21.3104 18.7595 21.1782 19.3342 21.5924C20.2668 22.2608 20.4833 21.6957 20.7562 21.0269C21.1232 20.1226 21.4902 19.2089 21.8573 18.3046C22.1961 17.4662 22.827 17.1929 23.6747 17.3904C24.4942 17.5785 25.2572 17.8985 25.9355 18.388C26.6797 18.9246 27.0284 19.6215 26.5484 20.5352C25.2965 22.9279 24.6663 25.4334 25.1852 28.1458C25.2512 28.4942 25.1854 28.9181 25.0537 29.2572C23.6609 32.6577 24.359 36.2459 24.0587 39.7497C24.0025 40.4373 23.9839 41.1719 24.8504 41.3977C26.8567 41.915 28.7784 42.7056 30.9822 42.3846C33.1201 42.0731 34.0332 40.66 34.7767 39.0022C36.3202 35.5733 37.195 31.9093 38.3523 28.3393C38.7004 27.2561 39.2464 26.3046 39.9336 25.3814C40.9692 24.0059 41.7881 22.4611 42.8237 21.0856C43.8404 19.7384 44.5186 19.7476 46.3367 20.8019C47.5519 21.5079 47.9195 22.5532 47.6374 23.806C46.9791 26.7259 45.3976 29.3636 45.116 32.3964C44.9846 33.7528 43.8642 34.7609 43.6103 36.2208C45.2963 36.484 46.8598 36.5212 48.3572 36.0309C49.5249 35.6444 50.2876 34.7494 50.89 33.6096C52.1418 31.2357 53.356 28.8148 55.3898 26.9492C56.7739 25.6773 56.8116 25.6584 58.5072 26.4302C61.3143 27.7196 61.6631 28.6802 59.4505 30.8566C57.0401 33.2402 56.2876 36.2355 55.4503 39.2686C55.0646 40.6626 55.9221 41.8208 56.8264 42.3668C58.6634 43.4587 59.7377 45.1537 61.0944 46.6508C62.1873 47.856 62.4228 47.8936 63.7034 46.9043C65.7467 45.3307 67.2624 43.2299 69.0796 41.4304C72.7045 37.8408 75.2555 33.498 77.3449 28.8917C79.0484 25.1426 82.1656 24.0396 85.933 24.1514C88.8151 24.2353 91.1418 25.4212 92.6119 28.0108C93.0549 28.7924 93.4978 29.5928 93.8183 30.431C94.9118 33.2656 93.7164 35.7242 90.8347 36.6858C87.8117 37.6946 87.3877 37.3745 87.1795 34.1252C87.1038 33.0138 87.6779 31.7233 86.2648 30.8761C85.0496 30.1419 84.0418 30.0951 83.1098 31.1879C82.2624 32.1677 81.6129 33.2982 81.5757 34.6356C81.4917 37.2728 81.3984 39.91 81.4652 42.5377C81.513 44.638 82.5964 45.5889 84.6496 45.4282C87.3715 45.2201 89.5939 44.2775 91.2036 41.7434C93.3876 38.3144 96.3347 35.469 99.2629 32.652C101.654 30.3531 104.263 28.3367 106.993 26.4521C108.189 25.6229 109.545 25.1798 110.76 24.4353C111.947 23.7191 113.039 22.9559 113.707 21.7407C114.319 20.6291 115.261 20.1767 116.325 20.7038C117.277 21.1838 118.84 20.5617 119.161 22.3417C119.368 23.4436 119.755 24.4795 118.983 25.5723C119.925 25.6568 120.49 25.3269 121.055 24.9406C122.646 23.8475 124.577 23.2535 126.347 23.187C128.711 23.1015 131.057 23.9578 132.762 25.888C133.186 26.3682 133.177 27.0087 133.262 27.5926C133.375 28.3837 133.441 29.1843 133.564 30.2862C135.184 28.7505 136.417 27.309 137.65 25.8394C140.334 22.6456 143.582 20.5819 148.019 21.2304C150.609 21.6063 152.201 23.3858 152.437 25.9664C152.589 27.6052 152.853 29.2533 153.287 30.8355C154.003 33.4442 154.202 36.0059 153.336 38.5963C153.27 38.7941 153.308 39.0295 153.289 39.3498C154.203 39.3871 154.693 38.8501 155.116 38.2472C156.039 36.9472 156.754 35.5342 157.206 34.0082C157.958 31.4462 158.909 29.0253 161.319 27.5176C161.734 27.2537 161.856 26.8016 162.035 26.3965C163.588 23.0525 166.196 20.5746 168.879 18.1626C169.294 17.7951 169.812 17.7008 170.33 17.597C171.29 17.4083 172.242 17.182 173.212 17.0215C178.213 16.2005 181.868 18.2808 183.762 22.9706C183.979 23.5073 183.932 24.1855 184.658 24.6468C185.561 23.7423 186.465 22.7719 187.435 21.8862C188.923 20.5201 189.978 20.5668 191.579 21.9697C192.945 23.1748 193.049 24.2861 191.778 25.8971C190.432 27.6117 189.641 29.5051 189.605 31.6807C189.586 32.7733 189.097 33.7153 188.814 34.7232C188.175 37.0215 189.635 39.3662 191.952 39.6951C192.452 39.7703 192.772 39.3934 193.158 39.1767C197.263 36.7642 200.097 33.2125 201.97 28.9171C202.968 26.6281 204.163 24.4332 205.5 22.3796C207.072 19.9491 209.087 17.8198 212.345 17.3384C215.679 16.8476 218.185 19.0036 218.026 22.3755C217.924 24.4852 218.226 26.6797 219.102 28.5536C219.988 30.4465 219.584 31.8688 218.557 33.3572C218.087 34.0449 217.682 34.7703 217.4 35.5427C216.703 37.4737 217.297 38.3212 219.35 38.1039C221.168 37.9149 222.863 37.208 224.304 36.0867C225.424 35.2104 226.403 34.1647 227.137 32.8929C228.521 30.4908 230.075 28.2016 230.808 25.4512C231.109 24.3397 232.07 23.4446 232.625 22.3613C234.395 18.9513 234.789 15.1837 235.588 11.5197C236.106 9.16491 236.5 6.79133 237.244 4.49298C237.479 3.75826 237.827 3.11769 238.251 2.49594C238.58 2.00607 239.051 1.82697 239.579 1.73261C240.115 1.63825 243.478 3.30422 243.695 3.77508C244.006 4.47194 243.677 5.08425 243.404 5.70596C242.387 7.97614 241.512 10.2934 241.306 12.7987C241.278 13.0907 241.193 13.3921 241.485 13.75C242.898 13.5423 244.348 13.749 245.827 14.0123C247.051 14.2285 247.862 14.8875 248.644 15.7255C249.256 16.3752 249.473 17.0721 249.266 17.9857C248.589 21.0093 248.223 24.0516 249.09 27.1217C249.269 27.7433 249.119 28.4685 249.015 29.1373C248.912 29.8249 248.94 30.4653 249.091 31.1434C249.289 32.0757 249.742 32.4523 250.683 32.1318C252.652 31.4625 254.535 30.6707 255.052 28.3442C255.551 26.0836 257.076 24.4725 258.667 23.0216C261.774 20.1856 262.922 16.399 264.108 12.603C264.399 11.6704 264.682 10.7285 265.03 9.81479C266.47 6.06578 270.124 4.88728 273.459 7.13721C274.08 7.56084 274.711 7.94679 275.371 8.29506C276.803 9.05749 277.952 10.0837 278.518 11.6753C278.687 12.1461 278.838 12.6924 279.488 12.8523C280.034 12.4094 280.204 11.7501 280.354 11.1096C280.674 9.74378 281.437 8.66041 282.35 7.6335C284.647 5.05209 286.183 6.06878 287.794 8.54532C288.482 9.59054 287.861 10.6456 287.136 11.4087C285.742 12.8785 284.952 14.6212 284.415 16.5333C284.255 17.1079 283.964 17.6542 283.672 18.1629C282.006 21.0455 281.536 24.2291 281.348 27.4879C281.32 28.0154 281.311 28.5522 281.405 29.0608C281.679 30.5206 282.527 31.0195 283.836 30.2562C286.407 28.7578 288.563 26.7981 289.88 24.0474C290.36 23.0301 290.671 21.9374 291.509 21.0989C292.573 20.0249 293.204 19.874 294.504 20.5517C294.833 20.7211 295.135 20.9659 295.455 21.1542C297.283 22.2367 297.471 22.5568 296.408 24.2996C295.457 25.8634 295.542 27.4551 295.797 29.0938C296.052 30.7043 297.71 31.4572 299.028 30.4867C301.391 28.7529 303.802 27.0474 304.912 24.1085C305.308 23.0629 305.882 22.0549 306.541 21.1505C307.962 19.2099 308.48 16.9399 309.091 14.7075C309.712 12.4469 310.625 10.2991 311.623 8.18908C313.006 5.25949 315.389 5.17395 317.236 7.91412C318.15 9.26067 318.15 9.70333 317.218 11.0976C316.879 11.6063 316.653 12.1526 316.475 12.7366C316.051 14.1024 315.449 15.393 314.743 16.6459C313.011 19.7263 313.144 23.0133 313.936 26.3095C314.209 27.4396 317.196 28.7855 318.533 28.4365C320.322 27.965 321.725 26.7873 323.194 25.7413C323.731 25.3644 323.834 24.7145 323.825 24.1117C323.795 18.8939 326.346 14.4099 327.973 9.67188C328.51 8.10824 328.999 6.52578 329.46 4.94333C329.78 3.83185 330.269 2.83333 331.041 1.98542C332.086 0.826606 333.622 0.694249 334.912 1.58858C336.438 2.64295 337.051 4.12145 336.128 5.44034C334.811 7.3433 334.708 9.56609 334.313 11.6383C333.579 15.4907 332.931 19.3242 331.086 22.8379C330.653 23.6669 330.446 24.3356 331.266 25.0229C332.613 26.1527 333.593 27.5651 334.394 29.571C337.04 26.6128 340.637 24.9822 341.86 21.0731C342.312 19.632 343.15 19.2267 344.421 19.4523C345.608 19.6591 346.315 20.4689 346.409 21.8251C346.589 24.434 345.902 26.6946 343.906 28.5507C341.034 31.2171 337.965 33.6104 334.726 35.8059C334.387 36.0321 334.038 36.2394 333.699 35.9852C332.097 34.7613 329.799 34.2064 329.601 31.607C329.534 30.6934 328.875 29.9778 328.196 29.1209C326.643 30.2799 324.787 30.8362 323.149 31.8445C321.369 32.9282 319.363 33.2679 317.338 33.4852C316.585 33.5702 315.841 33.2879 315.163 32.9585C313.881 32.3279 312.647 31.7726 311.14 31.6695C309.341 31.5476 308.851 29.9937 308.653 28.4115C307.824 28.5342 307.645 29.203 307.344 29.6552C305.461 32.5096 302.872 34.46 299.802 35.855C298.295 36.5336 296.76 36.5247 295.545 35.4608C294.113 34.2086 291.956 34.2093 290.806 32.5332C290.627 32.2789 290.269 32.3167 290.006 32.5334C289.657 32.8161 289.29 33.0799 288.951 33.3814C286.399 35.6144 283.357 35.7755 280.211 35.3622C279.156 35.2212 278.177 34.7412 277.527 33.8372C276.961 33.0463 276.424 32.9523 275.69 33.64C274.701 34.5634 273.609 35.3831 272.639 36.3159C272.065 36.8718 271.453 37.4371 271.868 38.4635C272.216 39.3393 271.501 39.8953 270.813 39.6129C269.73 39.1706 268.986 39.7548 268.054 39.9717C265.888 40.481 263.674 40.9433 261.414 40.4731C260.368 40.2568 259.85 39.7107 259.897 38.5993C259.972 36.7909 259.5 35.0487 259.292 32.9861C257.061 35.6334 253.896 36.1336 251.231 37.5661C249.536 38.4708 245.439 36.8051 244.365 35.6093C243.705 34.8843 243.601 33.9707 243.771 33.0571C244.513 29.0069 243.231 24.9762 243.691 20.9355C243.71 20.7377 243.663 20.474 243.192 20.3612C239.944 23.4703 236.667 26.5889 237.102 31.8348C237.244 33.5489 236.641 35.2539 236.228 36.9305C234.751 42.8364 233.321 48.7516 231.694 54.6104C230.546 58.7455 229.464 62.8712 228.731 67.1003C228.477 68.5697 227.931 70.0014 227.433 71.4144C226.661 73.6091 223.93 74.6178 222.027 73.4411C221.302 72.9892 221.301 72.1416 221.282 71.4258C221.254 70.3615 221.63 69.3536 222.148 68.421C223.259 66.4239 223.814 64.2575 224.369 62.0534C225.648 56.9482 227.097 51.89 228.432 46.7942C229.213 43.8271 229.919 40.8412 230.699 37.7423C229.673 37.7144 229.729 38.5526 229.325 38.8824C226.377 41.2945 223.204 43.2357 219.267 43.4724C218.815 43.5008 218.288 43.6423 217.93 43.4635C216.357 42.6446 214.671 42.4379 212.956 42.203C211.901 42.0621 211.534 41.2051 211.543 40.1879C211.57 37.3906 211.842 34.5367 212.962 32.0311C214.205 29.2522 213.385 26.7189 212.95 24.0913C212.818 23.3002 211.876 23.065 211.453 23.7621C210.822 24.8078 209.645 25.4863 209.287 26.6166C208.507 29.1128 206.897 31.1383 205.616 33.3238C203.63 36.7339 201.55 40.1629 197.84 42.1608C196.823 42.7074 195.966 43.6025 194.883 44.1679C192.755 45.28 190.748 45.0452 188.949 43.6801C187.319 42.4468 185.266 41.9671 183.806 40.4701C183.269 39.924 182.694 40.1973 182.336 40.8379C181.687 41.9871 180.585 42.6656 179.644 43.523C177.356 45.5864 174.559 46.256 171.677 46.9162C169.784 47.3501 167.853 47.5579 165.96 48.0577C163.144 48.7933 162.277 47.9836 160.299 45.1681C159.743 44.3865 159.45 43.426 159.055 42.5878C158.518 42.5504 158.292 42.8801 158.066 43.1627C156.541 45.1128 154.355 44.9534 152.302 44.7751C150.908 44.6531 149.58 43.9378 148.205 43.5426C147.084 43.2134 146.763 42.5542 146.763 41.3769C146.763 39.738 147.139 38.2404 147.873 36.8368C148.645 35.3673 148.917 33.9544 148.342 32.2969C147.852 30.8843 147.729 29.3586 147.427 27.88C147.144 26.4861 146.758 26.1849 145.44 26.6656C143.594 27.335 141.861 28.1549 140.958 30.1614C140.176 31.8852 138.774 33.2042 137.352 34.4291C135.261 36.2381 133.463 38.2072 133.163 41.1364C133.106 41.645 132.862 42.1443 132.664 42.6341C131.234 46.1477 131.224 46.1288 127.523 46.1677C126.807 46.1679 126.232 45.9232 126.166 45.2734C126.024 43.823 125.496 42.4292 126.287 40.8938C127.868 37.8322 128.056 34.4133 128.271 31.0414C128.299 30.5987 128.177 30.1467 128.064 29.704C127.705 28.3102 126.773 27.6701 125.586 28.3674C123.354 29.6773 120.925 30.4598 118.551 31.3836C118.486 31.4119 118.401 31.4308 118.344 31.4685C117.459 32.015 117.563 33.0322 117.196 33.8329C116.82 34.643 115.378 34.2196 115.275 35.4723C115.134 37.0735 114.344 38.4771 113.854 39.9842C113.365 41.5007 113.083 42.9795 113.329 44.6277C113.725 47.293 111.107 49.1304 108.564 48.0764C107.763 47.747 107.33 47.1632 107.386 46.1366C107.573 42.8212 108.147 39.5811 109.106 36.4067C109.36 35.559 109.718 34.7866 108.277 34.8153C107.9 34.8154 107.702 34.3822 107.504 34.0526C107.118 33.3935 106.563 33.5726 106.186 33.9589C105.028 35.1366 103.502 35.8529 102.485 37.2377C101.563 38.5001 100.292 39.4989 99.1713 40.6106C97.6083 42.1557 96.5635 44.0963 95.2267 45.8203C94.8124 46.3573 94.4641 46.9508 93.8332 47.2524C91.639 48.3174 89.624 49.7873 87.081 50.0236C86.045 50.1181 84.9808 50.175 84.058 50.7875C83.5777 51.1079 83.0503 51.0609 82.5981 50.6843C81.3828 49.6487 79.8944 49.0652 78.5191 48.331C77.059 47.5498 76.4841 46.4386 76.3423 44.9129C76.2478 43.8863 76.0968 42.8597 75.9457 41.6165C73.6575 43.2372 72.2643 45.4039 70.4754 47.1846C68.5734 49.0783 66.8882 51.1886 64.0724 51.943C61.2376 52.7068 58.9958 51.9353 57.2621 49.7036C56.1879 48.3195 55.0762 47.1237 53.5218 46.2106C52.024 45.3352 51.0063 43.8097 50.7043 42.0109C50.4967 40.8054 50.0352 40.6454 48.8579 40.8436C46.8707 41.1833 44.827 41.2593 42.802 41.373C41.8979 41.4204 41.5401 41.8067 41.2955 42.6827C40.6276 45.0563 39.8372 47.4018 39.4047 49.8413C39.1509 51.3012 37.0981 52.5922 35.6382 52.4044C34.847 52.301 34.4889 51.7266 34.338 51.0297C34.1776 50.2857 34.2245 49.5228 34.4503 48.7975C34.6666 48.0722 34.8265 47.3469 34.7038 46.4333C33.2345 46.4056 31.8219 46.9617 30.3527 47.0375C28.0546 47.1513 25.8882 46.6623 23.7217 46.0884C23.0718 45.9191 22.4313 45.6744 21.7625 45.5522C19.2005 45.0727 19.2006 45.0821 18.8041 42.2944C18.2676 43.453 17.7782 44.4516 17.3452 45.4689C16.2159 48.0782 14.2762 49.614 11.4791 50.1895C10.5185 50.3876 9.66133 50.2654 8.85122 49.8795C7.71141 49.3336 6.65652 49.268 5.40396 49.5886C1.63689 50.5411 1.28828 50.1645 1.20226 46.2935C1.14487 43.5905 0.729578 40.8969 1.35032 38.2125C1.55725 37.3365 1.67938 36.404 2.0747 35.6127C2.7618 34.2374 3.204 32.7962 3.39189 31.3175C3.67372 29.0946 4.85042 27.2294 5.61266 25.2042C5.9232 24.3847 6.30906 23.4615 7.5524 23.7814C9.39857 24.2517 10.4632 25.1838 10.4353 26.4458C10.4168 27.5007 10.2194 28.5368 9.65457 29.4788C8.82619 30.8542 8.33692 32.3425 8.24326 33.9531C8.21514 34.3957 8.17764 34.9044 7.94229 35.2529C6.57727 37.2783 6.64399 39.7083 6.03251 41.9312C5.56214 43.6267 5.92015 43.9751 7.75694 44.549C8.18082 44.6807 8.58588 44.8972 9.00977 45.0666C10.8654 45.8101 11.9013 45.4142 12.8238 43.5584C13.8026 41.5896 14.4612 39.4891 14.7714 37.3322C15.0533 35.3919 15.5801 33.508 15.9468 31.5865C16.4263 29.0999 17.6689 26.9615 19.0433 24.8796C19.3257 24.4556 19.5516 23.9847 19.7775 23.589L19.7775 23.5702ZM164.798 36.3792C164.591 37.3305 164.714 38.6679 165.072 39.9864C165.393 41.1824 165.854 41.5873 166.994 41.116C169.056 40.2582 171.166 39.4005 172.512 37.4033C174.206 34.9069 176.07 32.5234 178.34 30.5448C179.931 29.1503 180.043 27.7375 179.289 26.0048C179.11 25.5904 178.903 25.1855 178.696 24.79C176.801 21.108 172.572 20.7891 170.106 24.1429C169.616 24.8118 169.136 25.4806 168.656 26.1589C166.566 29.1076 164.796 32.188 164.807 36.3792L164.798 36.3792ZM264.848 28.3787C264.754 29.7255 264.867 30.9122 265.169 32.0894C265.376 32.9088 265.866 33.2194 266.667 32.946C269.012 32.1353 270.98 30.6842 272.232 28.6305C273.305 26.8878 273.907 24.8438 274.679 22.9033C275.911 19.8042 275.119 17.0261 273.922 14.2292C273.404 13.0238 272.339 12.4778 271.162 12.1015C270.38 11.8474 269.834 12.0831 269.58 12.8743C269.392 13.4489 269.072 14.033 269.1 14.5981C269.186 16.331 268.433 17.8005 267.774 19.2983C267.322 20.3251 266.776 21.3236 266.833 22.5009C266.861 23.0566 266.617 23.5464 266.249 23.9233C264.997 25.2234 264.743 26.8058 264.848 28.3692L264.848 28.3787Z"/>
    </mask>
    <path d="M19.7775 23.5702C19.5513 23.2029 19.3348 23.3725 19.137 23.4197C18.1105 23.6461 17.6393 23.0246 17.7521 22.1863C17.8742 21.3104 18.7595 21.1782 19.3342 21.5924C20.2668 22.2608 20.4833 21.6957 20.7562 21.0269C21.1232 20.1226 21.4902 19.2089 21.8573 18.3046C22.1961 17.4662 22.827 17.1929 23.6747 17.3904C24.4942 17.5785 25.2572 17.8985 25.9355 18.388C26.6797 18.9246 27.0284 19.6215 26.5484 20.5352C25.2965 22.9279 24.6663 25.4334 25.1852 28.1458C25.2512 28.4942 25.1854 28.9181 25.0537 29.2572C23.6609 32.6577 24.359 36.2459 24.0587 39.7497C24.0025 40.4373 23.9839 41.1719 24.8504 41.3977C26.8567 41.915 28.7784 42.7056 30.9822 42.3846C33.1201 42.0731 34.0332 40.66 34.7767 39.0022C36.3202 35.5733 37.195 31.9093 38.3523 28.3393C38.7004 27.2561 39.2464 26.3046 39.9336 25.3814C40.9692 24.0059 41.7881 22.4611 42.8237 21.0856C43.8404 19.7384 44.5186 19.7476 46.3367 20.8019C47.5519 21.5079 47.9195 22.5532 47.6374 23.806C46.9791 26.7259 45.3976 29.3636 45.116 32.3964C44.9846 33.7528 43.8642 34.7609 43.6103 36.2208C45.2963 36.484 46.8598 36.5212 48.3572 36.0309C49.5249 35.6444 50.2876 34.7494 50.89 33.6096C52.1418 31.2357 53.356 28.8148 55.3898 26.9492C56.7739 25.6773 56.8116 25.6584 58.5072 26.4302C61.3143 27.7196 61.6631 28.6802 59.4505 30.8566C57.0401 33.2402 56.2876 36.2355 55.4503 39.2686C55.0646 40.6626 55.9221 41.8208 56.8264 42.3668C58.6634 43.4587 59.7377 45.1537 61.0944 46.6508C62.1873 47.856 62.4228 47.8936 63.7034 46.9043C65.7467 45.3307 67.2624 43.2299 69.0796 41.4304C72.7045 37.8408 75.2555 33.498 77.3449 28.8917C79.0484 25.1426 82.1656 24.0396 85.933 24.1514C88.8151 24.2353 91.1418 25.4212 92.6119 28.0108C93.0549 28.7924 93.4978 29.5928 93.8183 30.431C94.9118 33.2656 93.7164 35.7242 90.8347 36.6858C87.8117 37.6946 87.3877 37.3745 87.1795 34.1252C87.1038 33.0138 87.6779 31.7233 86.2648 30.8761C85.0496 30.1419 84.0418 30.0951 83.1098 31.1879C82.2624 32.1677 81.6129 33.2982 81.5757 34.6356C81.4917 37.2728 81.3984 39.91 81.4652 42.5377C81.513 44.638 82.5964 45.5889 84.6496 45.4282C87.3715 45.2201 89.5939 44.2775 91.2036 41.7434C93.3876 38.3144 96.3347 35.469 99.2629 32.652C101.654 30.3531 104.263 28.3367 106.993 26.4521C108.189 25.6229 109.545 25.1798 110.76 24.4353C111.947 23.7191 113.039 22.9559 113.707 21.7407C114.319 20.6291 115.261 20.1767 116.325 20.7038C117.277 21.1838 118.84 20.5617 119.161 22.3417C119.368 23.4436 119.755 24.4795 118.983 25.5723C119.925 25.6568 120.49 25.3269 121.055 24.9406C122.646 23.8475 124.577 23.2535 126.347 23.187C128.711 23.1015 131.057 23.9578 132.762 25.888C133.186 26.3682 133.177 27.0087 133.262 27.5926C133.375 28.3837 133.441 29.1843 133.564 30.2862C135.184 28.7505 136.417 27.309 137.65 25.8394C140.334 22.6456 143.582 20.5819 148.019 21.2304C150.609 21.6063 152.201 23.3858 152.437 25.9664C152.589 27.6052 152.853 29.2533 153.287 30.8355C154.003 33.4442 154.202 36.0059 153.336 38.5963C153.27 38.7941 153.308 39.0295 153.289 39.3498C154.203 39.3871 154.693 38.8501 155.116 38.2472C156.039 36.9472 156.754 35.5342 157.206 34.0082C157.958 31.4462 158.909 29.0253 161.319 27.5176C161.734 27.2537 161.856 26.8016 162.035 26.3965C163.588 23.0525 166.196 20.5746 168.879 18.1626C169.294 17.7951 169.812 17.7008 170.33 17.597C171.29 17.4083 172.242 17.182 173.212 17.0215C178.213 16.2005 181.868 18.2808 183.762 22.9706C183.979 23.5073 183.932 24.1855 184.658 24.6468C185.561 23.7423 186.465 22.7719 187.435 21.8862C188.923 20.5201 189.978 20.5668 191.579 21.9697C192.945 23.1748 193.049 24.2861 191.778 25.8971C190.432 27.6117 189.641 29.5051 189.605 31.6807C189.586 32.7733 189.097 33.7153 188.814 34.7232C188.175 37.0215 189.635 39.3662 191.952 39.6951C192.452 39.7703 192.772 39.3934 193.158 39.1767C197.263 36.7642 200.097 33.2125 201.97 28.9171C202.968 26.6281 204.163 24.4332 205.5 22.3796C207.072 19.9491 209.087 17.8198 212.345 17.3384C215.679 16.8476 218.185 19.0036 218.026 22.3755C217.924 24.4852 218.226 26.6797 219.102 28.5536C219.988 30.4465 219.584 31.8688 218.557 33.3572C218.087 34.0449 217.682 34.7703 217.4 35.5427C216.703 37.4737 217.297 38.3212 219.35 38.1039C221.168 37.9149 222.863 37.208 224.304 36.0867C225.424 35.2104 226.403 34.1647 227.137 32.8929C228.521 30.4908 230.075 28.2016 230.808 25.4512C231.109 24.3397 232.07 23.4446 232.625 22.3613C234.395 18.9513 234.789 15.1837 235.588 11.5197C236.106 9.16491 236.5 6.79133 237.244 4.49298C237.479 3.75826 237.827 3.11769 238.251 2.49594C238.58 2.00607 239.051 1.82697 239.579 1.73261C240.115 1.63825 243.478 3.30422 243.695 3.77508C244.006 4.47194 243.677 5.08425 243.404 5.70596C242.387 7.97614 241.512 10.2934 241.306 12.7987C241.278 13.0907 241.193 13.3921 241.485 13.75C242.898 13.5423 244.348 13.749 245.827 14.0123C247.051 14.2285 247.862 14.8875 248.644 15.7255C249.256 16.3752 249.473 17.0721 249.266 17.9857C248.589 21.0093 248.223 24.0516 249.09 27.1217C249.269 27.7433 249.119 28.4685 249.015 29.1373C248.912 29.8249 248.94 30.4653 249.091 31.1434C249.289 32.0757 249.742 32.4523 250.683 32.1318C252.652 31.4625 254.535 30.6707 255.052 28.3442C255.551 26.0836 257.076 24.4725 258.667 23.0216C261.774 20.1856 262.922 16.399 264.108 12.603C264.399 11.6704 264.682 10.7285 265.03 9.81479C266.47 6.06578 270.124 4.88728 273.459 7.13721C274.08 7.56084 274.711 7.94679 275.371 8.29506C276.803 9.05749 277.952 10.0837 278.518 11.6753C278.687 12.1461 278.838 12.6924 279.488 12.8523C280.034 12.4094 280.204 11.7501 280.354 11.1096C280.674 9.74378 281.437 8.66041 282.35 7.6335C284.647 5.05209 286.183 6.06878 287.794 8.54532C288.482 9.59054 287.861 10.6456 287.136 11.4087C285.742 12.8785 284.952 14.6212 284.415 16.5333C284.255 17.1079 283.964 17.6542 283.672 18.1629C282.006 21.0455 281.536 24.2291 281.348 27.4879C281.32 28.0154 281.311 28.5522 281.405 29.0608C281.679 30.5206 282.527 31.0195 283.836 30.2562C286.407 28.7578 288.563 26.7981 289.88 24.0474C290.36 23.0301 290.671 21.9374 291.509 21.0989C292.573 20.0249 293.204 19.874 294.504 20.5517C294.833 20.7211 295.135 20.9659 295.455 21.1542C297.283 22.2367 297.471 22.5568 296.408 24.2996C295.457 25.8634 295.542 27.4551 295.797 29.0938C296.052 30.7043 297.71 31.4572 299.028 30.4867C301.391 28.7529 303.802 27.0474 304.912 24.1085C305.308 23.0629 305.882 22.0549 306.541 21.1505C307.962 19.2099 308.48 16.9399 309.091 14.7075C309.712 12.4469 310.625 10.2991 311.623 8.18908C313.006 5.25949 315.389 5.17395 317.236 7.91412C318.15 9.26067 318.15 9.70333 317.218 11.0976C316.879 11.6063 316.653 12.1526 316.475 12.7366C316.051 14.1024 315.449 15.393 314.743 16.6459C313.011 19.7263 313.144 23.0133 313.936 26.3095C314.209 27.4396 317.196 28.7855 318.533 28.4365C320.322 27.965 321.725 26.7873 323.194 25.7413C323.731 25.3644 323.834 24.7145 323.825 24.1117C323.795 18.8939 326.346 14.4099 327.973 9.67188C328.51 8.10824 328.999 6.52578 329.46 4.94333C329.78 3.83185 330.269 2.83333 331.041 1.98542C332.086 0.826606 333.622 0.694249 334.912 1.58858C336.438 2.64295 337.051 4.12145 336.128 5.44034C334.811 7.3433 334.708 9.56609 334.313 11.6383C333.579 15.4907 332.931 19.3242 331.086 22.8379C330.653 23.6669 330.446 24.3356 331.266 25.0229C332.613 26.1527 333.593 27.5651 334.394 29.571C337.04 26.6128 340.637 24.9822 341.86 21.0731C342.312 19.632 343.15 19.2267 344.421 19.4523C345.608 19.6591 346.315 20.4689 346.409 21.8251C346.589 24.434 345.902 26.6946 343.906 28.5507C341.034 31.2171 337.965 33.6104 334.726 35.8059C334.387 36.0321 334.038 36.2394 333.699 35.9852C332.097 34.7613 329.799 34.2064 329.601 31.607C329.534 30.6934 328.875 29.9778 328.196 29.1209C326.643 30.2799 324.787 30.8362 323.149 31.8445C321.369 32.9282 319.363 33.2679 317.338 33.4852C316.585 33.5702 315.841 33.2879 315.163 32.9585C313.881 32.3279 312.647 31.7726 311.14 31.6695C309.341 31.5476 308.851 29.9937 308.653 28.4115C307.824 28.5342 307.645 29.203 307.344 29.6552C305.461 32.5096 302.872 34.46 299.802 35.855C298.295 36.5336 296.76 36.5247 295.545 35.4608C294.113 34.2086 291.956 34.2093 290.806 32.5332C290.627 32.2789 290.269 32.3167 290.006 32.5334C289.657 32.8161 289.29 33.0799 288.951 33.3814C286.399 35.6144 283.357 35.7755 280.211 35.3622C279.156 35.2212 278.177 34.7412 277.527 33.8372C276.961 33.0463 276.424 32.9523 275.69 33.64C274.701 34.5634 273.609 35.3831 272.639 36.3159C272.065 36.8718 271.453 37.4371 271.868 38.4635C272.216 39.3393 271.501 39.8953 270.813 39.6129C269.73 39.1706 268.986 39.7548 268.054 39.9717C265.888 40.481 263.674 40.9433 261.414 40.4731C260.368 40.2568 259.85 39.7107 259.897 38.5993C259.972 36.7909 259.5 35.0487 259.292 32.9861C257.061 35.6334 253.896 36.1336 251.231 37.5661C249.536 38.4708 245.439 36.8051 244.365 35.6093C243.705 34.8843 243.601 33.9707 243.771 33.0571C244.513 29.0069 243.231 24.9762 243.691 20.9355C243.71 20.7377 243.663 20.474 243.192 20.3612C239.944 23.4703 236.667 26.5889 237.102 31.8348C237.244 33.5489 236.641 35.2539 236.228 36.9305C234.751 42.8364 233.321 48.7516 231.694 54.6104C230.546 58.7455 229.464 62.8712 228.731 67.1003C228.477 68.5697 227.931 70.0014 227.433 71.4144C226.661 73.6091 223.93 74.6178 222.027 73.4411C221.302 72.9892 221.301 72.1416 221.282 71.4258C221.254 70.3615 221.63 69.3536 222.148 68.421C223.259 66.4239 223.814 64.2575 224.369 62.0534C225.648 56.9482 227.097 51.89 228.432 46.7942C229.213 43.8271 229.919 40.8412 230.699 37.7423C229.673 37.7144 229.729 38.5526 229.325 38.8824C226.377 41.2945 223.204 43.2357 219.267 43.4724C218.815 43.5008 218.288 43.6423 217.93 43.4635C216.357 42.6446 214.671 42.4379 212.956 42.203C211.901 42.0621 211.534 41.2051 211.543 40.1879C211.57 37.3906 211.842 34.5367 212.962 32.0311C214.205 29.2522 213.385 26.7189 212.95 24.0913C212.818 23.3002 211.876 23.065 211.453 23.7621C210.822 24.8078 209.645 25.4863 209.287 26.6166C208.507 29.1128 206.897 31.1383 205.616 33.3238C203.63 36.7339 201.55 40.1629 197.84 42.1608C196.823 42.7074 195.966 43.6025 194.883 44.1679C192.755 45.28 190.748 45.0452 188.949 43.6801C187.319 42.4468 185.266 41.9671 183.806 40.4701C183.269 39.924 182.694 40.1973 182.336 40.8379C181.687 41.9871 180.585 42.6656 179.644 43.523C177.356 45.5864 174.559 46.256 171.677 46.9162C169.784 47.3501 167.853 47.5579 165.96 48.0577C163.144 48.7933 162.277 47.9836 160.299 45.1681C159.743 44.3865 159.45 43.426 159.055 42.5878C158.518 42.5504 158.292 42.8801 158.066 43.1627C156.541 45.1128 154.355 44.9534 152.302 44.7751C150.908 44.6531 149.58 43.9378 148.205 43.5426C147.084 43.2134 146.763 42.5542 146.763 41.3769C146.763 39.738 147.139 38.2404 147.873 36.8368C148.645 35.3673 148.917 33.9544 148.342 32.2969C147.852 30.8843 147.729 29.3586 147.427 27.88C147.144 26.4861 146.758 26.1849 145.44 26.6656C143.594 27.335 141.861 28.1549 140.958 30.1614C140.176 31.8852 138.774 33.2042 137.352 34.4291C135.261 36.2381 133.463 38.2072 133.163 41.1364C133.106 41.645 132.862 42.1443 132.664 42.6341C131.234 46.1477 131.224 46.1288 127.523 46.1677C126.807 46.1679 126.232 45.9232 126.166 45.2734C126.024 43.823 125.496 42.4292 126.287 40.8938C127.868 37.8322 128.056 34.4133 128.271 31.0414C128.299 30.5987 128.177 30.1467 128.064 29.704C127.705 28.3102 126.773 27.6701 125.586 28.3674C123.354 29.6773 120.925 30.4598 118.551 31.3836C118.486 31.4119 118.401 31.4308 118.344 31.4685C117.459 32.015 117.563 33.0322 117.196 33.8329C116.82 34.643 115.378 34.2196 115.275 35.4723C115.134 37.0735 114.344 38.4771 113.854 39.9842C113.365 41.5007 113.083 42.9795 113.329 44.6277C113.725 47.293 111.107 49.1304 108.564 48.0764C107.763 47.747 107.33 47.1632 107.386 46.1366C107.573 42.8212 108.147 39.5811 109.106 36.4067C109.36 35.559 109.718 34.7866 108.277 34.8153C107.9 34.8154 107.702 34.3822 107.504 34.0526C107.118 33.3935 106.563 33.5726 106.186 33.9589C105.028 35.1366 103.502 35.8529 102.485 37.2377C101.563 38.5001 100.292 39.4989 99.1713 40.6106C97.6083 42.1557 96.5635 44.0963 95.2267 45.8203C94.8124 46.3573 94.4641 46.9508 93.8332 47.2524C91.639 48.3174 89.624 49.7873 87.081 50.0236C86.045 50.1181 84.9808 50.175 84.058 50.7875C83.5777 51.1079 83.0503 51.0609 82.5981 50.6843C81.3828 49.6487 79.8944 49.0652 78.5191 48.331C77.059 47.5498 76.4841 46.4386 76.3423 44.9129C76.2478 43.8863 76.0968 42.8597 75.9457 41.6165C73.6575 43.2372 72.2643 45.4039 70.4754 47.1846C68.5734 49.0783 66.8882 51.1886 64.0724 51.943C61.2376 52.7068 58.9958 51.9353 57.2621 49.7036C56.1879 48.3195 55.0762 47.1237 53.5218 46.2106C52.024 45.3352 51.0063 43.8097 50.7043 42.0109C50.4967 40.8054 50.0352 40.6454 48.8579 40.8436C46.8707 41.1833 44.827 41.2593 42.802 41.373C41.8979 41.4204 41.5401 41.8067 41.2955 42.6827C40.6276 45.0563 39.8372 47.4018 39.4047 49.8413C39.1509 51.3012 37.0981 52.5922 35.6382 52.4044C34.847 52.301 34.4889 51.7266 34.338 51.0297C34.1776 50.2857 34.2245 49.5228 34.4503 48.7975C34.6666 48.0722 34.8265 47.3469 34.7038 46.4333C33.2345 46.4056 31.8219 46.9617 30.3527 47.0375C28.0546 47.1513 25.8882 46.6623 23.7217 46.0884C23.0718 45.9191 22.4313 45.6744 21.7625 45.5522C19.2005 45.0727 19.2006 45.0821 18.8041 42.2944C18.2676 43.453 17.7782 44.4516 17.3452 45.4689C16.2159 48.0782 14.2762 49.614 11.4791 50.1895C10.5185 50.3876 9.66133 50.2654 8.85122 49.8795C7.71141 49.3336 6.65652 49.268 5.40396 49.5886C1.63689 50.5411 1.28828 50.1645 1.20226 46.2935C1.14487 43.5905 0.729578 40.8969 1.35032 38.2125C1.55725 37.3365 1.67938 36.404 2.0747 35.6127C2.7618 34.2374 3.204 32.7962 3.39189 31.3175C3.67372 29.0946 4.85042 27.2294 5.61266 25.2042C5.9232 24.3847 6.30906 23.4615 7.5524 23.7814C9.39857 24.2517 10.4632 25.1838 10.4353 26.4458C10.4168 27.5007 10.2194 28.5368 9.65457 29.4788C8.82619 30.8542 8.33692 32.3425 8.24326 33.9531C8.21514 34.3957 8.17764 34.9044 7.94229 35.2529C6.57727 37.2783 6.64399 39.7083 6.03251 41.9312C5.56214 43.6267 5.92015 43.9751 7.75694 44.549C8.18082 44.6807 8.58588 44.8972 9.00977 45.0666C10.8654 45.8101 11.9013 45.4142 12.8238 43.5584C13.8026 41.5896 14.4612 39.4891 14.7714 37.3322C15.0533 35.3919 15.5801 33.508 15.9468 31.5865C16.4263 29.0999 17.6689 26.9615 19.0433 24.8796C19.3257 24.4556 19.5516 23.9847 19.7775 23.589L19.7775 23.5702ZM164.798 36.3792C164.591 37.3305 164.714 38.6679 165.072 39.9864C165.393 41.1824 165.854 41.5873 166.994 41.116C169.056 40.2582 171.166 39.4005 172.512 37.4033C174.206 34.9069 176.07 32.5234 178.34 30.5448C179.931 29.1503 180.043 27.7375 179.289 26.0048C179.11 25.5904 178.903 25.1855 178.696 24.79C176.801 21.108 172.572 20.7891 170.106 24.1429C169.616 24.8118 169.136 25.4806 168.656 26.1589C166.566 29.1076 164.796 32.188 164.807 36.3792L164.798 36.3792ZM264.848 28.3787C264.754 29.7255 264.867 30.9122 265.169 32.0894C265.376 32.9088 265.866 33.2194 266.667 32.946C269.012 32.1353 270.98 30.6842 272.232 28.6305C273.305 26.8878 273.907 24.8438 274.679 22.9033C275.911 19.8042 275.119 17.0261 273.922 14.2292C273.404 13.0238 272.339 12.4778 271.162 12.1015C270.38 11.8474 269.834 12.0831 269.58 12.8743C269.392 13.4489 269.072 14.033 269.1 14.5981C269.186 16.331 268.433 17.8005 267.774 19.2983C267.322 20.3251 266.776 21.3236 266.833 22.5009C266.861 23.0566 266.617 23.5464 266.249 23.9233C264.997 25.2234 264.743 26.8058 264.848 28.3692L264.848 28.3787Z" stroke="#242424" stroke-width="2" mask="url(#path-3-outside-1_0_1)"/>
</svg>
