<svg width="331" height="111" viewBox="0 0 331 111" fill="none" xmlns="http://www.w3.org/2000/svg">
    <path d="M35.01 55.1296H33.06C32.89 53.9796 32.58 52.6096 32.14 51.0296C31.7 49.4496 31.2 47.9496 30.65 46.5396C30.08 45.0696 29.46 43.7796 28.79 42.6796C28.12 41.5796 27.47 40.9496 26.85 40.7796C26.26 40.6496 25.53 40.5596 24.64 40.4896C23.75 40.4296 22.93 40.3896 22.17 40.3896H20.52V94.8396C20.52 95.8996 20.65 96.8596 20.92 97.7396C21.18 98.6196 21.65 99.2996 22.31 99.7796C22.65 99.9996 23.36 100.31 24.45 100.69C25.54 101.07 26.38 101.28 26.98 101.31V104.72H8.01V101.31C8.54 101.25 9.34 101.12 10.43 100.93C11.52 100.74 12.26 100.5 12.68 100.21C13.3 99.7896 13.76 99.1996 14.05 98.4096C14.34 97.6296 14.49 96.5796 14.49 95.2696V40.3996H12.85C12.27 40.3996 11.54 40.4196 10.67 40.4696C9.8 40.5196 8.97 40.6196 8.18 40.7796C7.56 40.9096 6.91 41.5396 6.24 42.6796C5.57 43.8196 4.95 45.0996 4.39 46.5396C3.82 47.9796 3.32 49.5096 2.89 51.1196C2.46 52.7396 2.15 54.0696 1.98 55.1296H0V36.6596H35.01V55.1296Z" fill="#242424"/>
    <path d="M71.97 84.6796L71.21 104.73H37.87V101.32C38.44 101.26 39.19 101.12 40.13 100.91C41.07 100.7 41.69 100.49 41.97 100.26C42.57 99.7796 42.99 99.1596 43.23 98.3896C43.47 97.6196 43.58 96.6496 43.58 95.4596V46.5396C43.58 45.4796 43.48 44.5496 43.27 43.7296C43.06 42.9096 42.63 42.2496 41.97 41.7396C41.46 41.3196 40.78 40.9596 39.92 40.6396C39.06 40.3196 38.38 40.1296 37.87 40.0596V36.6596H68.95V53.0696H66.83C66.45 50.6396 65.64 48.0596 64.38 45.3196C63.13 42.5896 61.93 41.0896 60.8 40.8296C60.22 40.6996 59.52 40.6096 58.71 40.5396C57.9 40.4796 56.97 40.4396 55.94 40.4396H49.63V67.4996H54.16C55.61 67.4996 56.67 67.2696 57.34 66.7996C58.01 66.3396 58.6 65.5596 59.11 64.4696C59.52 63.5396 59.88 62.2996 60.17 60.7496C60.46 59.1996 60.66 57.7396 60.75 56.3596H62.87V83.0296H60.75C60.67 81.4896 60.47 79.8696 60.14 78.1596C59.81 76.4496 59.47 75.2096 59.11 74.4396C58.53 73.1896 57.86 72.3796 57.11 71.9896C56.36 71.6096 55.38 71.4096 54.15 71.4096H49.62V91.8096C49.62 93.8496 49.7 95.4696 49.87 96.6496C50.04 97.8296 50.37 98.7296 50.86 99.3296C51.35 99.9396 52.02 100.33 52.87 100.5C53.72 100.68 54.93 100.76 56.49 100.76H58.95C59.97 100.76 60.83 100.7 61.53 100.57C62.25 100.44 62.99 100.21 63.75 99.8696C64.51 99.5296 65.06 99.0796 65.38 98.4996C66.25 96.9596 67.16 94.6396 68.11 91.5196C69.06 88.3996 69.67 86.1096 69.94 84.6396H71.98L71.97 84.6796Z" fill="#242424"/>
    <path d="M144.82 84.6796L144.06 104.73H110.72V101.32C111.29 101.26 112.04 101.12 112.98 100.91C113.92 100.7 114.54 100.49 114.82 100.26C115.42 99.7796 115.84 99.1596 116.08 98.3896C116.32 97.6196 116.43 96.6496 116.43 95.4596V46.5396C116.43 45.4796 116.33 44.5496 116.12 43.7296C115.91 42.9096 115.48 42.2496 114.82 41.7396C114.31 41.3196 113.63 40.9596 112.77 40.6396C111.91 40.3196 111.23 40.1296 110.72 40.0596V36.6596H141.8V53.0696H139.68C139.3 50.6396 138.49 48.0596 137.23 45.3196C135.98 42.5896 134.78 41.0896 133.65 40.8296C133.07 40.6996 132.37 40.6096 131.56 40.5396C130.75 40.4796 129.82 40.4396 128.79 40.4396H122.48V67.4996H127.01C128.46 67.4996 129.52 67.2696 130.19 66.7996C130.86 66.3396 131.45 65.5596 131.96 64.4696C132.37 63.5396 132.73 62.2996 133.02 60.7496C133.31 59.1996 133.51 57.7396 133.6 56.3596H135.72V83.0296H133.6C133.52 81.4896 133.32 79.8696 132.99 78.1596C132.66 76.4496 132.32 75.2096 131.96 74.4396C131.38 73.1896 130.71 72.3796 129.96 71.9896C129.21 71.6096 128.23 71.4096 127 71.4096H122.47V91.8096C122.47 93.8496 122.55 95.4696 122.72 96.6496C122.89 97.8296 123.22 98.7296 123.71 99.3296C124.2 99.9396 124.87 100.33 125.72 100.5C126.57 100.68 127.78 100.76 129.34 100.76H131.8C132.82 100.76 133.68 100.7 134.38 100.57C135.1 100.44 135.84 100.21 136.6 99.8696C137.36 99.5296 137.91 99.0796 138.23 98.4996C139.1 96.9596 140.01 94.6396 140.96 91.5196C141.91 88.3996 142.52 86.1096 142.79 84.6396H144.83L144.82 84.6796Z" fill="#242424"/>
    <path d="M187.79 77.5796C187.34 77.6796 186.73 77.8296 185.96 78.0396C185.2 78.2496 184.58 78.5396 184.11 78.9296C183.54 79.4096 183.14 80.0896 182.91 80.9696C182.67 81.8496 182.56 82.8796 182.56 84.0596V89.3396C182.56 93.1796 182.57 95.7696 182.6 97.1096C182.63 98.4496 182.66 99.5596 182.7 100.42C180.19 102.34 177.69 103.81 175.2 104.83C172.71 105.85 170.27 106.37 167.87 106.37C165.3 106.37 162.83 105.55 160.45 103.92C158.07 102.29 156 99.9696 154.22 96.9596C152.43 93.9196 151 90.2196 149.95 85.8696C148.89 81.5196 148.37 76.6496 148.37 71.2796C148.37 65.9096 148.87 61.2896 149.88 56.8496C150.89 52.4196 152.32 48.5696 154.17 45.2996C155.96 42.0996 158.1 39.6096 160.58 37.8396C163.06 36.0596 165.72 35.1696 168.55 35.1696C170.81 35.1696 172.79 35.6296 174.47 36.5596C176.15 37.4896 177.63 38.6096 178.91 39.9196L180.07 36.6596H182.33L182.58 60.4596H180.26C179.86 57.8396 179.37 55.2496 178.79 52.7096C178.21 50.1696 177.45 47.8896 176.52 45.8696C175.59 43.8596 174.47 42.2496 173.13 41.0496C171.8 39.8496 170.21 39.2496 168.36 39.2496C166.34 39.2496 164.53 39.9496 162.95 41.3396C161.36 42.7296 159.98 44.7996 158.81 47.5596C157.66 50.2196 156.77 53.5296 156.15 57.4996C155.53 61.4696 155.22 65.8996 155.22 70.7996C155.22 75.1196 155.53 79.1896 156.14 83.0196C156.75 86.8396 157.65 90.1496 158.82 92.9296C159.99 95.7796 161.45 98.0196 163.21 99.6496C164.97 101.28 166.96 102.1 169.19 102.1C170.85 102.1 172.37 101.67 173.74 100.8C175.11 99.9396 176.08 99.0296 176.64 98.0696C176.79 96.4096 176.87 94.7296 176.88 93.0296C176.88 91.3396 176.89 89.8996 176.89 88.7096V84.9696C176.89 83.6296 176.78 82.4396 176.56 81.3996C176.34 80.3596 175.89 79.5996 175.22 79.1196C174.6 78.6396 173.75 78.2796 172.69 78.0396C171.62 77.7996 170.79 77.6496 170.19 77.5796V74.0796H187.79V77.5796Z" fill="#242424"/>
    <path d="M230.07 104.73H219.26C216.87 98.3696 214.7 92.8596 212.77 88.2296C210.84 83.5896 208.74 78.8096 206.48 73.8896H202.37V95.4796C202.37 96.5996 202.47 97.5796 202.68 98.4296C202.89 99.2796 203.33 99.9296 204.01 100.37C204.35 100.59 204.94 100.8 205.79 100.99C206.64 101.18 207.36 101.29 207.94 101.33V104.74H190.96V101.33C191.41 101.27 192.07 101.15 192.93 100.99C193.79 100.83 194.39 100.62 194.73 100.37C195.3 99.9496 195.71 99.3496 195.96 98.5496C196.21 97.7496 196.34 96.7296 196.34 95.4796V46.2496C196.34 45.1296 196.25 44.1396 196.06 43.2796C195.87 42.4196 195.43 41.7596 194.73 41.3096C194.26 41.0196 193.65 40.7596 192.89 40.5196C192.13 40.2796 191.49 40.1296 190.97 40.0596V36.6596H209.51C211.21 36.6596 212.8 36.9596 214.29 37.5496C215.78 38.1396 217.13 39.0896 218.34 40.3996C219.51 41.6796 220.44 43.3496 221.14 45.4096C221.84 47.4696 222.19 49.9596 222.19 52.8696C222.19 55.4896 221.95 57.8096 221.48 59.8296C221.01 61.8496 220.31 63.5896 219.39 65.0596C218.54 66.4396 217.52 67.6296 216.33 68.6296C215.14 69.6396 213.83 70.4896 212.4 71.1996C214.38 75.6496 216.03 79.3896 217.34 82.4296C218.65 85.4696 220.26 89.1596 222.17 93.5096C223 95.4296 223.75 96.8396 224.42 97.7596C225.09 98.6696 225.75 99.4196 226.42 99.9896C226.91 100.41 227.52 100.73 228.26 100.95C229 101.17 229.61 101.3 230.1 101.33V104.74L230.07 104.73ZM215.18 53.9996C215.18 49.8796 214.48 46.6196 213.09 44.2096C211.7 41.7996 209.72 40.5896 207.17 40.5896H202.36V69.7596H206.07C208.67 69.7596 210.84 68.3496 212.58 65.5196C214.32 62.6896 215.18 58.8496 215.18 53.9996Z" fill="#242424"/>
    <path d="M269.07 104.73H252.38V101.32C253.85 101.16 255.07 100.84 256.04 100.36C257.01 99.8796 257.5 99.2896 257.5 98.5896C257.5 98.2996 257.48 97.9496 257.44 97.5296C257.4 97.1096 257.35 96.7496 257.27 96.4296L253.94 81.1696H239.84C239.31 83.4096 238.88 85.3596 238.55 87.0196C238.22 88.6796 237.92 90.2196 237.66 91.6296C237.41 93.0096 237.24 94.1196 237.15 94.9896C237.06 95.8496 237.01 96.5596 237.01 97.0996C237.01 98.3796 237.6 99.3696 238.79 100.07C239.98 100.77 241.32 101.19 242.81 101.32V104.73H227.69V101.32C228.18 101.26 228.79 101.07 229.53 100.77C230.27 100.47 230.87 100.06 231.34 99.5496C232.09 98.6896 232.68 97.7796 233.09 96.8396C233.5 95.8996 233.91 94.5896 234.31 92.9296C236.33 84.3896 238.56 74.7996 240.99 64.1496C243.42 53.4996 245.59 44.0196 247.5 35.6996H249.76L263.15 94.4196C263.43 95.6696 263.75 96.6696 264.11 97.4396C264.47 98.2096 264.97 98.9596 265.61 99.6896C266.04 100.14 266.61 100.51 267.31 100.82C268.01 101.12 268.59 101.29 269.06 101.32V104.73H269.07ZM252.91 76.9096L246.83 50.4896L240.83 76.9096H252.91Z" fill="#242424"/>
    <path d="M314.544 46.2804C313.018 48.2753 312.137 50.1659 311.032 52.0212C307.165 58.4991 303.154 64.9608 299.443 71.4607C294.884 79.4584 290.858 87.5115 288.265 95.7425C287.22 99.0361 286.021 102.324 285.311 105.633C285.063 106.771 284.172 107.215 282.34 107.312C280.431 107.406 279.444 106.937 279.46 105.856C279.518 101.73 279.841 97.5906 280.694 93.4167C281.381 90.0455 281.736 86.6745 282.309 83.3067C283.124 78.5548 284.116 73.7887 284.842 69.036C285.494 64.8065 285.83 60.5912 286.838 56.3572C287.005 55.6366 287.196 54.9036 286.781 54.1283C285.975 54.4087 285.968 54.8791 285.796 55.2796C282.352 63.7496 279.025 72.2321 276.703 80.7699C275.28 85.9898 273.615 91.2108 272.729 96.4359C272.345 98.6925 272.338 100.916 272.255 103.145C272.234 103.684 272.517 104.136 272.766 104.612C273.382 105.805 273.157 106.272 271.955 106.613C270.473 107.036 268.678 106.757 268.236 105.978C267.87 105.342 267.526 104.686 267.513 103.956C267.482 100.487 267.74 96.9936 268.682 93.4791C270.884 85.275 273.227 77.0712 276.317 68.91C279.462 60.5579 282.476 52.1794 286.682 43.9139C288.334 40.6706 289.039 37.4773 288.368 34.2854C288.1 33.0399 289.004 32.3058 290.992 32.0084C292.956 31.7153 293.703 32.2022 293.841 33.5775C294.19 36.9656 293.01 40.4311 292.65 43.8522C292.156 48.3999 291.574 52.9546 290.902 57.5086C289.632 66.1591 288.59 74.8027 286.775 83.4742C286.516 84.6964 286.025 85.9756 286.544 87.1939C287.503 86.8455 287.425 86.3241 287.618 85.8953C290.372 79.5377 293.767 73.274 297.708 67.0714C301.281 61.4599 304.34 55.7569 307.676 50.1044C309.378 47.2146 311.17 44.3338 312.989 41.4566C313.638 40.4296 314.068 39.3833 314.6 38.3438C315.2 37.1773 316.64 36.4405 318.269 36.3538C320.013 36.2636 320.725 36.765 320.308 37.9572C319.45 40.4199 319.492 42.8492 319.351 45.2607C319.041 50.2784 317.738 55.3047 316.624 60.3225C315.415 65.7439 314.142 71.1601 313.81 76.5683C313.64 79.3225 313.032 82.1203 312.774 84.8816C312.663 85.9959 311.498 87.2856 313.083 88.1862C313.365 88.3427 313.147 88.5536 312.79 88.6242C311.411 88.9059 311.502 89.6473 311.37 90.2794C310.821 93.1245 310.261 95.9798 311.081 98.7094C311.742 100.891 311.186 103.259 312.161 105.411C312.704 106.625 311.58 107.414 309.532 107.664C307.436 107.922 305.543 107.158 305.991 106.001C307.189 102.854 305.606 100.068 305.583 97.0839C305.57 95.7691 305.563 94.4862 305.969 93.1561C307.609 87.8653 308.88 82.5813 309.5 77.2955C309.592 76.5057 309.645 75.7145 309.598 74.9325C309.311 69.9284 311.455 64.8955 312.646 59.8806C313.584 55.9058 314.131 51.9499 315.018 47.9757C315.125 47.488 315.43 46.8997 314.557 46.2783L314.544 46.2804Z" fill="#242424"/>
    <path d="M90.7734 110.131C86.674 110.516 82.6903 106.375 82.8692 102.697C83.1442 97.1629 82.9169 91.6036 83.382 86.1031C84.3891 74.038 84.2863 61.9768 83.8056 49.8807C83.6741 46.6521 83.8633 43.3206 84.6885 40.1312C85.3309 37.6348 86.1847 36.9234 87.855 37.3042C90.1781 37.8417 91.4912 39.5129 90.7966 41.7289C88.691 48.505 89.4904 55.4434 89.4885 62.331C89.5052 71.1445 89.3019 79.9427 88.8008 88.7317C88.6102 92.2528 88.6073 95.7757 88.5578 99.3022C88.5445 100.172 88.6424 101.065 88.817 101.937C89.2645 104.162 89.6709 104.369 91.8247 103.687C94.7887 102.755 97.7658 101.79 100.752 100.951C103.769 100.094 105.555 100.561 105.843 102.325C106.22 104.65 104.26 105.207 102.718 105.923C98.7436 107.767 94.5509 108.996 90.7578 110.133L90.7734 110.131Z" fill="#242424"/>
    <mask id="path-2-outside-1_0_1" maskUnits="userSpaceOnUse" x="6.7854" y="-22.1033" width="326.462" height="127.576" fill="black">
        <rect fill="white" x="6.7854" y="-22.1033" width="326.462" height="127.576"/>
        <path d="M212.369 17.4581C213.48 17.7702 214.204 17.352 214.945 17.1272C217.91 16.2379 220.353 17.5527 221.302 20.4335C222.391 23.7537 222.03 27.2455 222.65 30.6211C222.865 31.7843 222.802 33.0053 222.782 34.2011C222.76 35.3263 223.229 36.2173 223.932 37.0049C225.135 38.3347 226.332 38.4255 227.705 37.2882C228.385 36.7239 228.956 36.0662 229.353 35.2571C230.835 32.2499 232.498 29.3343 233.714 26.195C234.265 24.7597 234.871 23.2905 236.498 22.4751C237.43 22.0009 238.133 20.9862 238.82 20.1106C240.101 18.4692 241.672 17.1035 243.052 15.5544C244.085 14.3972 245.153 13.3651 246.863 13.3753C247.255 13.3812 247.728 13.2153 247.441 12.6579C246.956 11.7348 247.11 10.9374 248.185 10.9633C249.319 10.9961 249.177 11.946 248.918 12.7715C248.886 12.8784 249.007 13.0437 249.061 13.181C254.949 11.5788 259.768 15.0362 261.291 19.3742C262.174 19.3171 262.537 18.4537 263.243 18.1038C264.709 17.3703 265.85 18.0282 266.972 18.8451C268.048 19.6263 268.505 20.6166 268.144 21.9737C267.856 23.0474 267.126 23.6058 266.151 23.8435C264.949 24.1348 264.183 24.7394 263.903 26.0053C263.67 27.0451 262.727 27.6993 262.236 28.6182C260.583 31.7061 259.732 35.0897 258.638 38.3944C258.278 39.4798 259.224 41.1116 260.242 41.6142C261.564 42.2734 263.249 41.9885 264.098 40.85C265.521 38.9434 267.072 37.1425 267.91 34.8145C268.269 33.8197 268.937 32.68 270.2 32.2145C271.568 31.7112 272.859 31.8632 273.661 33.0049C274.402 34.0688 275.936 35.0651 274.799 36.7638C274.262 37.5665 274.641 38.1046 275.334 38.5487C275.867 38.8934 276.397 39.268 276.966 39.5666C278.333 40.2713 279.155 40.2171 280.177 39.0687C281.814 37.2176 283.519 35.3945 284.564 33.111C285.54 30.9805 286.862 29.0721 288.441 27.3752C290.033 25.6596 291.37 23.7933 292.476 21.7587C292.875 21.0203 293.468 20.5162 294.072 20.0034C294.911 19.2966 295.778 19.1974 296.668 19.9365C296.916 20.137 297.188 20.3099 297.448 20.4916C299.935 22.1237 300.26 24.488 297.709 26.141C294.503 28.2302 294.019 31.5665 292.784 34.613C292.643 34.9588 292.67 35.4151 292.757 35.7878C293.017 36.916 292.907 37.9301 292.513 39.0518C291.948 40.6869 292.95 41.5803 294.569 41.0056C298.573 39.5842 301.868 37.3344 304.212 33.5928C306.556 29.8513 308.156 25.7604 310.184 21.871C311.003 20.306 311.829 18.7621 313.011 17.4513C313.394 17.0231 313.624 16.6072 313.781 16.0417C314.136 14.7343 314.721 14.5615 315.489 15.5582C316.058 16.2898 316.784 16.7076 317.477 17.2323C319.121 18.4932 319.423 19.858 318.279 21.5357C316.256 24.5195 314.932 27.8978 312.929 30.8839C312.709 31.2105 312.464 31.5843 312.43 31.953C312.125 34.8874 311.848 37.8353 311.622 40.779C311.567 41.417 311.94 41.8435 312.664 41.7677C313.062 41.7239 313.492 41.7444 313.842 41.5943C316.538 40.4216 319.21 39.1958 321.526 37.052C320.363 35.8981 319.857 34.469 319.169 33.1294C318.833 32.4756 318.704 31.7757 318.607 31.0594C318.484 30.2293 318.882 29.672 319.516 29.2433C320.226 28.7731 320.881 28.9408 321.484 29.465C321.602 29.5695 321.775 29.6403 321.851 29.77C323.074 31.8674 324.933 33.0934 327.203 33.8239C327.639 33.966 328.032 34.3043 328.399 34.6093C329.719 35.7113 329.772 37.4896 328.454 38.593C326.79 39.9779 325.58 41.7888 324.008 43.2549C323.182 44.0236 322.365 44.8034 321.311 45.2029C318.93 46.1004 316.577 47.102 314.055 47.6508C311.698 48.1687 309.455 47.8944 307.306 46.9062C305.185 45.9314 305 45.5371 305.155 43.1991C305.187 42.7598 305.524 42.286 304.985 41.7391C302.577 43.7111 299.855 45.1928 296.865 46.0488C293.927 46.8809 291.052 46.5019 288.372 44.9779C287.588 44.5333 287.033 43.8637 286.925 42.8945C286.848 42.2711 286.68 41.6471 286.545 40.9969C285.543 41.1206 285.224 41.949 284.688 42.4799C281.874 45.2598 278.765 46.4342 274.942 44.5239C273.469 43.7864 271.69 43.6675 270.382 42.1239C268.93 44.1883 268.21 46.7113 265.107 46.8996C262.624 47.04 260.277 47.3879 257.793 46.5919C255.008 45.7 254.465 43.1288 252.977 41.1411C251.419 41.8939 249.706 42.3266 248.207 43.2576C247.491 43.6968 246.992 44.0005 247.184 45.1006C247.391 46.2527 246.47 46.8087 245.606 46.1029C244.734 45.386 243.92 45.4612 242.939 45.4967C240.105 45.6161 237.503 45.0578 235.863 42.3977C235.092 41.159 234.784 39.7633 234.689 38.3425C233.836 38.1514 233.751 38.8664 233.482 39.2777C230.974 43.1307 228.495 43.9161 224.093 42.6425C221.6 41.9259 219.847 40.2291 217.86 38.797C217.071 38.2308 217.084 37.4368 217.178 36.6423C217.61 32.7159 216.668 28.8291 216.807 24.9184C216.822 24.447 216.677 23.9667 216.571 23.5011C216.372 22.6218 215.791 22.3419 214.962 22.5463C214.091 22.7559 213.316 23.1782 212.713 23.8522C211.314 25.3891 209.86 26.8792 208.589 28.5218C206.617 31.0687 205.451 34.0427 204.545 37.1178C203.957 39.1227 203.117 41.0376 202.092 42.8199C200.177 46.1689 198.897 49.7639 197.588 53.3554C196.442 56.503 195.635 59.761 194.557 62.9366C193.784 65.2219 193.26 67.5364 192.85 69.9047C191.965 74.9358 190.934 79.9294 190.109 84.9675C189.865 86.4391 189.131 87.0273 187.848 87.3192C186.627 87.5983 185.379 87.6828 184.5 86.6831C183.664 85.7389 183.386 84.508 184.099 83.3332C186.614 79.2494 186.847 74.5343 187.841 70.0296C189.556 62.3073 191.66 54.7012 194.37 47.257C194.415 47.1314 194.364 46.9643 194.345 46.7809C193.704 46.5845 193.092 46.9052 192.537 47.0815C189.342 48.135 186.245 47.5889 183.145 46.7203C182.034 46.4082 181.437 45.6632 181.058 44.6116C180.716 43.6651 180.547 42.6182 179.375 42.1378C178.588 41.8135 178.662 40.9261 179.313 40.6201C180.461 40.1009 180.434 39.1311 180.532 38.2162C180.766 35.9782 181.451 33.8336 182.016 31.685C182.543 29.6929 182.272 27.7177 182.485 25.739C182.604 24.726 182.003 24.4438 181.161 25.0997C179.466 26.4104 177.715 27.6843 176.217 29.1996C175.178 30.2451 174.092 31.1745 172.827 31.821C168.902 33.8558 165.217 36.2511 162.01 39.2868C160.309 40.899 158.14 41.026 156.103 41.5614C154.887 41.8814 153.555 41.7346 152.3 41.9593C149.989 42.3516 148.173 41.01 146.168 40.3408C145.509 40.1222 145.654 39.4849 145.774 38.8948C146.215 36.8624 145.983 36.6941 143.932 36.6641C142.032 36.6416 140.134 36.6799 138.296 35.8793C136.754 35.2043 135.026 35.2525 133.336 35.3253C130.978 35.4301 130.206 34.8861 129.474 32.6351C129.033 31.2539 128.867 29.8448 129.06 28.3773C129.237 27.0389 129.478 25.6778 128.953 24.2364C128.029 24.3088 127.488 25.0506 126.863 25.5711C124.397 27.6166 122.199 29.9455 120.059 32.3013C117.85 34.7296 115.051 35.4068 112.039 35.334C109.75 35.2758 107.438 34.9834 105.2 34.2364C103.864 33.787 103.3 33.0158 103.032 31.7054C102.673 29.9615 103.287 28.2516 103.16 26.5147C102.244 26.4269 101.772 27.0158 101.263 27.4895C97.4725 31.0304 92.697 31.9078 87.7937 32.4177C87.4776 32.4509 87.1195 32.4994 86.8397 32.3959C82.1534 30.6356 77.378 31.6842 72.6471 32.013C67.2156 32.3902 62.5913 30.7883 58.6613 27.0529C57.3038 25.7552 56.7589 24.1403 56.5874 22.348C56.3214 19.6483 56.1162 16.9457 55.7683 14.2566C55.5834 12.8352 55.2558 11.4272 54.8541 10.0508C54.422 8.59018 53.8541 8.45281 52.9268 9.57202C51.5765 11.2053 49.8652 12.3127 48.078 13.3809C44.5444 15.5122 41.3169 17.9514 40.2337 22.2744C39.9514 23.389 39.1112 24.1962 38.4702 25.1075C38.0588 25.6934 37.5009 26.2419 37.3021 26.9032C37.0356 27.7982 36.7785 28.4425 35.7724 28.7771C34.4211 29.2221 33.0727 29.2143 31.7753 28.8601C30.9662 28.6339 30.7794 27.6553 30.7438 26.8456C30.7171 26.047 30.7908 25.2501 30.8645 24.4533C30.9424 23.5361 31.4344 22.6073 30.4513 21.8068C30.0657 21.4895 30.3357 20.9071 30.4217 20.4339C30.7269 18.8689 30.9935 17.2892 31.3384 15.7288C31.6102 14.5324 31.5934 13.3926 31.0433 12.0792C29.5324 13.1096 28.115 14.0301 27.3816 15.5548C26.7826 16.7932 26.0913 17.9603 25.2429 19.0083C22.849 21.9786 21.8594 25.6783 20.1215 28.9776C19.02 31.0631 17.9787 32.7227 15.3042 32.3472C14.64 32.2589 14.0902 32.7379 13.4645 32.8354C12.4696 32.99 11.851 32.3432 12.1695 31.4342C13.2052 28.4549 14.2495 25.4867 14.7892 22.3584C15.3359 19.1705 17.1561 16.4547 18.3121 13.4795C19.7275 9.84013 21.5099 6.33456 23.4131 2.91372C24.0512 1.77052 24.8371 0.997144 26.2117 1.03823C27.7365 1.08694 28.348 2.30685 29.0401 3.35501C29.4326 3.95505 29.0662 4.58652 28.7863 5.16777C28.4147 5.92952 27.6931 6.49902 27.4569 7.82046C29.652 5.68258 32.1713 4.64013 34.0311 2.61378C35.6385 0.849704 36.8051 0.946849 38.5283 2.5595C40.2241 4.14878 40.3057 4.82297 38.6417 6.46961C37.9569 7.1542 37.7319 7.95336 37.4648 8.76771C36.6869 11.1833 36.336 13.6492 36.5389 16.2004C37.6226 16.1468 37.8558 15.4493 38.11 14.9154C38.9989 13.0969 40.4677 11.9106 42.1527 10.941C45.3609 9.09365 48.26 6.87758 50.9296 4.30219C53.5869 1.7455 56.4004 2.13732 58.4681 5.27071C59.4937 6.82134 60.1273 8.53724 60.3193 10.4126C60.5725 12.8791 60.8058 15.3433 61.7501 17.6698C62.1478 18.6531 62.1576 19.6813 62.0634 20.7375C61.9341 22.0917 62.4685 23.1112 63.4791 24.1062C65.2367 25.8538 67.3771 26.4886 69.694 26.8219C70.8227 26.9851 71.2498 26.3507 71.42 25.3336C71.8006 23.0424 72.2794 20.7728 72.639 18.4892C73.1478 15.1961 74.4971 12.2034 76.0258 9.3124C77.4639 6.59196 79.708 5.91985 82.488 7.19382C84.5227 8.12825 86.5094 9.12753 87.8183 11.0942C88.6057 12.2744 89.1003 13.4604 88.8898 14.9057C88.7869 15.6085 88.8119 16.3364 88.8282 17.0532C88.852 18.1334 88.5872 19.0991 87.9111 19.9659C86.6894 21.5338 85.981 23.444 84.6272 24.9359C83.9097 25.7274 84.436 26.1317 85.2287 26.497C88.9236 28.211 92.2957 27.2791 95.3976 25.1372C98.2143 23.1934 100.729 20.8213 103.855 19.3267C104.261 19.1328 104.573 18.7064 104.895 18.3618C106.059 17.1193 107.186 16.9501 108.644 17.8266C110.186 18.7533 110.884 20.346 110.266 21.8339C109.463 23.7833 109.17 25.8431 108.927 27.8989C108.745 29.4482 108.955 29.634 110.524 29.99C112.78 30.4974 114.839 30.1963 116.389 28.3247C119.626 24.4367 123.635 21.3445 127.247 17.8631C127.826 17.307 128.257 16.6428 128.662 15.9354C130.21 13.2278 131.757 10.5203 133.407 7.88515C133.927 7.06032 134.417 5.80902 135.583 5.90617C137.118 6.03666 138.473 6.85066 139.388 8.13662C139.89 8.84008 139.634 9.64566 139.272 10.4086C137.787 13.5263 136.665 16.727 136.692 20.2544C136.7 21.3831 136.246 22.4171 135.821 23.4645C135.215 24.9337 134.588 26.4105 134.614 28.065C134.631 29.1241 134.878 29.848 136.153 30.0486C137.398 30.2456 138.58 30.8177 139.799 31.1527C140.569 31.3642 141.368 31.5087 142.159 31.5415C144.665 31.6452 144.956 31.307 145.357 28.847C146.078 24.3505 146.79 19.8428 148.5 15.5836C149.158 13.9292 150.314 12.5752 151.3 11.1306C152.942 8.72626 157.875 8.13924 160.204 9.99443C161.179 10.7739 161.666 11.6871 161.538 12.8602C161.464 13.4858 161.29 14.1097 161.334 14.7594C161.428 16.2707 162.12 18.0941 161.504 19.2198C159.745 22.4362 158.975 26.1517 156.542 29.0268C155.348 30.4468 153.852 31.5192 152.472 32.726C151.707 33.4012 151.064 34.0805 151.477 35.1865C151.853 36.1873 152.815 36.2202 153.675 36.3617C155.196 36.6113 156.55 36.0559 157.711 35.1757C161.962 31.9106 166.623 29.2677 171.097 26.3409C173.474 24.7884 175.825 23.0414 176.992 20.2286C177.583 18.798 179.09 18.5727 180.276 17.9974C182.573 16.8685 184.925 17.075 187.182 18.1766C188.496 18.8147 189.09 20.3548 188.72 21.7913C188.162 23.9609 187.895 26.1447 188.226 28.3787C188.622 31.0836 187.434 33.5617 186.95 36.1327C186.682 37.5511 186.278 38.9333 186.489 40.388C186.722 41.9963 187.312 42.6297 188.847 42.4278C191.76 42.0561 194.542 41.266 196.059 38.3838C198.356 34.0125 200.979 29.7803 202.216 24.9216C202.274 24.6868 202.306 24.4186 202.456 24.2551C205.035 21.3367 205.654 17.533 207.096 14.0981C207.307 13.5893 207.633 13.1243 207.93 12.6558C208.961 11.005 210.344 10.5437 211.83 11.353C212.956 11.959 213.81 14.2849 213.329 15.5473C213.109 16.1355 212.763 16.6788 212.381 17.4394L212.369 17.4581ZM240.113 33.9267C240.032 35.9813 239.643 37.4862 240.109 39.0011C240.559 40.4839 240.924 40.7182 242.335 40.1091C245.042 38.9276 247.722 37.7128 250.39 36.4361C252.662 35.3545 254.264 33.7207 254.58 31.0392C254.699 30.0262 255.128 29.0396 255.455 28.0611C256.205 25.7933 256.012 23.495 255.7 21.1926C255.645 20.8035 255.6 20.4156 255.338 20.0726C253.915 18.2234 249.129 17.8208 247.533 19.5761C246.572 20.641 245.446 21.5656 244.587 22.703C243.072 24.7095 241.451 26.5828 241.231 29.3963C241.095 31.0619 240.098 32.6864 240.112 33.9366L240.113 33.9267ZM77.6308 24.8367C80.5895 22.4565 82.2199 19.3862 82.7433 15.7122C82.8105 15.2267 82.6932 14.7698 82.442 14.3375C81.7639 13.1701 80.7176 13.0771 80.0439 14.2665C78.2014 17.5132 77.404 21.0341 77.6296 24.8467L77.6308 24.8367ZM155.005 17.3769C152.927 19.287 152.302 21.3479 152.913 23.8467C153.742 21.7694 154.853 19.9468 155.005 17.3769Z"/>
    </mask>
    <path d="M212.369 17.4581C213.48 17.7702 214.204 17.352 214.945 17.1272C217.91 16.2379 220.353 17.5527 221.302 20.4335C222.391 23.7537 222.03 27.2455 222.65 30.6211C222.865 31.7843 222.802 33.0053 222.782 34.2011C222.76 35.3263 223.229 36.2173 223.932 37.0049C225.135 38.3347 226.332 38.4255 227.705 37.2882C228.385 36.7239 228.956 36.0662 229.353 35.2571C230.835 32.2499 232.498 29.3343 233.714 26.195C234.265 24.7597 234.871 23.2905 236.498 22.4751C237.43 22.0009 238.133 20.9862 238.82 20.1106C240.101 18.4692 241.672 17.1035 243.052 15.5544C244.085 14.3972 245.153 13.3651 246.863 13.3753C247.255 13.3812 247.728 13.2153 247.441 12.6579C246.956 11.7348 247.11 10.9374 248.185 10.9633C249.319 10.9961 249.177 11.946 248.918 12.7715C248.886 12.8784 249.007 13.0437 249.061 13.181C254.949 11.5788 259.768 15.0362 261.291 19.3742C262.174 19.3171 262.537 18.4537 263.243 18.1038C264.709 17.3703 265.85 18.0282 266.972 18.8451C268.048 19.6263 268.505 20.6166 268.144 21.9737C267.856 23.0474 267.126 23.6058 266.151 23.8435C264.949 24.1348 264.183 24.7394 263.903 26.0053C263.67 27.0451 262.727 27.6993 262.236 28.6182C260.583 31.7061 259.732 35.0897 258.638 38.3944C258.278 39.4798 259.224 41.1116 260.242 41.6142C261.564 42.2734 263.249 41.9885 264.098 40.85C265.521 38.9434 267.072 37.1425 267.91 34.8145C268.269 33.8197 268.937 32.68 270.2 32.2145C271.568 31.7112 272.859 31.8632 273.661 33.0049C274.402 34.0688 275.936 35.0651 274.799 36.7638C274.262 37.5665 274.641 38.1046 275.334 38.5487C275.867 38.8934 276.397 39.268 276.966 39.5666C278.333 40.2713 279.155 40.2171 280.177 39.0687C281.814 37.2176 283.519 35.3945 284.564 33.111C285.54 30.9805 286.862 29.0721 288.441 27.3752C290.033 25.6596 291.37 23.7933 292.476 21.7587C292.875 21.0203 293.468 20.5162 294.072 20.0034C294.911 19.2966 295.778 19.1974 296.668 19.9365C296.916 20.137 297.188 20.3099 297.448 20.4916C299.935 22.1237 300.26 24.488 297.709 26.141C294.503 28.2302 294.019 31.5665 292.784 34.613C292.643 34.9588 292.67 35.4151 292.757 35.7878C293.017 36.916 292.907 37.9301 292.513 39.0518C291.948 40.6869 292.95 41.5803 294.569 41.0056C298.573 39.5842 301.868 37.3344 304.212 33.5928C306.556 29.8513 308.156 25.7604 310.184 21.871C311.003 20.306 311.829 18.7621 313.011 17.4513C313.394 17.0231 313.624 16.6072 313.781 16.0417C314.136 14.7343 314.721 14.5615 315.489 15.5582C316.058 16.2898 316.784 16.7076 317.477 17.2323C319.121 18.4932 319.423 19.858 318.279 21.5357C316.256 24.5195 314.932 27.8978 312.929 30.8839C312.709 31.2105 312.464 31.5843 312.43 31.953C312.125 34.8874 311.848 37.8353 311.622 40.779C311.567 41.417 311.94 41.8435 312.664 41.7677C313.062 41.7239 313.492 41.7444 313.842 41.5943C316.538 40.4216 319.21 39.1958 321.526 37.052C320.363 35.8981 319.857 34.469 319.169 33.1294C318.833 32.4756 318.704 31.7757 318.607 31.0594C318.484 30.2293 318.882 29.672 319.516 29.2433C320.226 28.7731 320.881 28.9408 321.484 29.465C321.602 29.5695 321.775 29.6403 321.851 29.77C323.074 31.8674 324.933 33.0934 327.203 33.8239C327.639 33.966 328.032 34.3043 328.399 34.6093C329.719 35.7113 329.772 37.4896 328.454 38.593C326.79 39.9779 325.58 41.7888 324.008 43.2549C323.182 44.0236 322.365 44.8034 321.311 45.2029C318.93 46.1004 316.577 47.102 314.055 47.6508C311.698 48.1687 309.455 47.8944 307.306 46.9062C305.185 45.9314 305 45.5371 305.155 43.1991C305.187 42.7598 305.524 42.286 304.985 41.7391C302.577 43.7111 299.855 45.1928 296.865 46.0488C293.927 46.8809 291.052 46.5019 288.372 44.9779C287.588 44.5333 287.033 43.8637 286.925 42.8945C286.848 42.2711 286.68 41.6471 286.545 40.9969C285.543 41.1206 285.224 41.949 284.688 42.4799C281.874 45.2598 278.765 46.4342 274.942 44.5239C273.469 43.7864 271.69 43.6675 270.382 42.1239C268.93 44.1883 268.21 46.7113 265.107 46.8996C262.624 47.04 260.277 47.3879 257.793 46.5919C255.008 45.7 254.465 43.1288 252.977 41.1411C251.419 41.8939 249.706 42.3266 248.207 43.2576C247.491 43.6968 246.992 44.0005 247.184 45.1006C247.391 46.2527 246.47 46.8087 245.606 46.1029C244.734 45.386 243.92 45.4612 242.939 45.4967C240.105 45.6161 237.503 45.0578 235.863 42.3977C235.092 41.159 234.784 39.7633 234.689 38.3425C233.836 38.1514 233.751 38.8664 233.482 39.2777C230.974 43.1307 228.495 43.9161 224.093 42.6425C221.6 41.9259 219.847 40.2291 217.86 38.797C217.071 38.2308 217.084 37.4368 217.178 36.6423C217.61 32.7159 216.668 28.8291 216.807 24.9184C216.822 24.447 216.677 23.9667 216.571 23.5011C216.372 22.6218 215.791 22.3419 214.962 22.5463C214.091 22.7559 213.316 23.1782 212.713 23.8522C211.314 25.3891 209.86 26.8792 208.589 28.5218C206.617 31.0687 205.451 34.0427 204.545 37.1178C203.957 39.1227 203.117 41.0376 202.092 42.8199C200.177 46.1689 198.897 49.7639 197.588 53.3554C196.442 56.503 195.635 59.761 194.557 62.9366C193.784 65.2219 193.26 67.5364 192.85 69.9047C191.965 74.9358 190.934 79.9294 190.109 84.9675C189.865 86.4391 189.131 87.0273 187.848 87.3192C186.627 87.5983 185.379 87.6828 184.5 86.6831C183.664 85.7389 183.386 84.508 184.099 83.3332C186.614 79.2494 186.847 74.5343 187.841 70.0296C189.556 62.3073 191.66 54.7012 194.37 47.257C194.415 47.1314 194.364 46.9643 194.345 46.7809C193.704 46.5845 193.092 46.9052 192.537 47.0815C189.342 48.135 186.245 47.5889 183.145 46.7203C182.034 46.4082 181.437 45.6632 181.058 44.6116C180.716 43.6651 180.547 42.6182 179.375 42.1378C178.588 41.8135 178.662 40.9261 179.313 40.6201C180.461 40.1009 180.434 39.1311 180.532 38.2162C180.766 35.9782 181.451 33.8336 182.016 31.685C182.543 29.6929 182.272 27.7177 182.485 25.739C182.604 24.726 182.003 24.4438 181.161 25.0997C179.466 26.4104 177.715 27.6843 176.217 29.1996C175.178 30.2451 174.092 31.1745 172.827 31.821C168.902 33.8558 165.217 36.2511 162.01 39.2868C160.309 40.899 158.14 41.026 156.103 41.5614C154.887 41.8814 153.555 41.7346 152.3 41.9593C149.989 42.3516 148.173 41.01 146.168 40.3408C145.509 40.1222 145.654 39.4849 145.774 38.8948C146.215 36.8624 145.983 36.6941 143.932 36.6641C142.032 36.6416 140.134 36.6799 138.296 35.8793C136.754 35.2043 135.026 35.2525 133.336 35.3253C130.978 35.4301 130.206 34.8861 129.474 32.6351C129.033 31.2539 128.867 29.8448 129.06 28.3773C129.237 27.0389 129.478 25.6778 128.953 24.2364C128.029 24.3088 127.488 25.0506 126.863 25.5711C124.397 27.6166 122.199 29.9455 120.059 32.3013C117.85 34.7296 115.051 35.4068 112.039 35.334C109.75 35.2758 107.438 34.9834 105.2 34.2364C103.864 33.787 103.3 33.0158 103.032 31.7054C102.673 29.9615 103.287 28.2516 103.16 26.5147C102.244 26.4269 101.772 27.0158 101.263 27.4895C97.4725 31.0304 92.697 31.9078 87.7937 32.4177C87.4776 32.4509 87.1195 32.4994 86.8397 32.3959C82.1534 30.6356 77.378 31.6842 72.6471 32.013C67.2156 32.3902 62.5913 30.7883 58.6613 27.0529C57.3038 25.7552 56.7589 24.1403 56.5874 22.348C56.3214 19.6483 56.1162 16.9457 55.7683 14.2566C55.5834 12.8352 55.2558 11.4272 54.8541 10.0508C54.422 8.59018 53.8541 8.45281 52.9268 9.57202C51.5765 11.2053 49.8652 12.3127 48.078 13.3809C44.5444 15.5122 41.3169 17.9514 40.2337 22.2744C39.9514 23.389 39.1112 24.1962 38.4702 25.1075C38.0588 25.6934 37.5009 26.2419 37.3021 26.9032C37.0356 27.7982 36.7785 28.4425 35.7724 28.7771C34.4211 29.2221 33.0727 29.2143 31.7753 28.8601C30.9662 28.6339 30.7794 27.6553 30.7438 26.8456C30.7171 26.047 30.7908 25.2501 30.8645 24.4533C30.9424 23.5361 31.4344 22.6073 30.4513 21.8068C30.0657 21.4895 30.3357 20.9071 30.4217 20.4339C30.7269 18.8689 30.9935 17.2892 31.3384 15.7288C31.6102 14.5324 31.5934 13.3926 31.0433 12.0792C29.5324 13.1096 28.115 14.0301 27.3816 15.5548C26.7826 16.7932 26.0913 17.9603 25.2429 19.0083C22.849 21.9786 21.8594 25.6783 20.1215 28.9776C19.02 31.0631 17.9787 32.7227 15.3042 32.3472C14.64 32.2589 14.0902 32.7379 13.4645 32.8354C12.4696 32.99 11.851 32.3432 12.1695 31.4342C13.2052 28.4549 14.2495 25.4867 14.7892 22.3584C15.3359 19.1705 17.1561 16.4547 18.3121 13.4795C19.7275 9.84013 21.5099 6.33456 23.4131 2.91372C24.0512 1.77052 24.8371 0.997144 26.2117 1.03823C27.7365 1.08694 28.348 2.30685 29.0401 3.35501C29.4326 3.95505 29.0662 4.58652 28.7863 5.16777C28.4147 5.92952 27.6931 6.49902 27.4569 7.82046C29.652 5.68258 32.1713 4.64013 34.0311 2.61378C35.6385 0.849704 36.8051 0.946849 38.5283 2.5595C40.2241 4.14878 40.3057 4.82297 38.6417 6.46961C37.9569 7.1542 37.7319 7.95336 37.4648 8.76771C36.6869 11.1833 36.336 13.6492 36.5389 16.2004C37.6226 16.1468 37.8558 15.4493 38.11 14.9154C38.9989 13.0969 40.4677 11.9106 42.1527 10.941C45.3609 9.09365 48.26 6.87758 50.9296 4.30219C53.5869 1.7455 56.4004 2.13732 58.4681 5.27071C59.4937 6.82134 60.1273 8.53724 60.3193 10.4126C60.5725 12.8791 60.8058 15.3433 61.7501 17.6698C62.1478 18.6531 62.1576 19.6813 62.0634 20.7375C61.9341 22.0917 62.4685 23.1112 63.4791 24.1062C65.2367 25.8538 67.3771 26.4886 69.694 26.8219C70.8227 26.9851 71.2498 26.3507 71.42 25.3336C71.8006 23.0424 72.2794 20.7728 72.639 18.4892C73.1478 15.1961 74.4971 12.2034 76.0258 9.3124C77.4639 6.59196 79.708 5.91985 82.488 7.19382C84.5227 8.12825 86.5094 9.12753 87.8183 11.0942C88.6057 12.2744 89.1003 13.4604 88.8898 14.9057C88.7869 15.6085 88.8119 16.3364 88.8282 17.0532C88.852 18.1334 88.5872 19.0991 87.9111 19.9659C86.6894 21.5338 85.981 23.444 84.6272 24.9359C83.9097 25.7274 84.436 26.1317 85.2287 26.497C88.9236 28.211 92.2957 27.2791 95.3976 25.1372C98.2143 23.1934 100.729 20.8213 103.855 19.3267C104.261 19.1328 104.573 18.7064 104.895 18.3618C106.059 17.1193 107.186 16.9501 108.644 17.8266C110.186 18.7533 110.884 20.346 110.266 21.8339C109.463 23.7833 109.17 25.8431 108.927 27.8989C108.745 29.4482 108.955 29.634 110.524 29.99C112.78 30.4974 114.839 30.1963 116.389 28.3247C119.626 24.4367 123.635 21.3445 127.247 17.8631C127.826 17.307 128.257 16.6428 128.662 15.9354C130.21 13.2278 131.757 10.5203 133.407 7.88515C133.927 7.06032 134.417 5.80902 135.583 5.90617C137.118 6.03666 138.473 6.85066 139.388 8.13662C139.89 8.84008 139.634 9.64566 139.272 10.4086C137.787 13.5263 136.665 16.727 136.692 20.2544C136.7 21.3831 136.246 22.4171 135.821 23.4645C135.215 24.9337 134.588 26.4105 134.614 28.065C134.631 29.1241 134.878 29.848 136.153 30.0486C137.398 30.2456 138.58 30.8177 139.799 31.1527C140.569 31.3642 141.368 31.5087 142.159 31.5415C144.665 31.6452 144.956 31.307 145.357 28.847C146.078 24.3505 146.79 19.8428 148.5 15.5836C149.158 13.9292 150.314 12.5752 151.3 11.1306C152.942 8.72626 157.875 8.13924 160.204 9.99443C161.179 10.7739 161.666 11.6871 161.538 12.8602C161.464 13.4858 161.29 14.1097 161.334 14.7594C161.428 16.2707 162.12 18.0941 161.504 19.2198C159.745 22.4362 158.975 26.1517 156.542 29.0268C155.348 30.4468 153.852 31.5192 152.472 32.726C151.707 33.4012 151.064 34.0805 151.477 35.1865C151.853 36.1873 152.815 36.2202 153.675 36.3617C155.196 36.6113 156.55 36.0559 157.711 35.1757C161.962 31.9106 166.623 29.2677 171.097 26.3409C173.474 24.7884 175.825 23.0414 176.992 20.2286C177.583 18.798 179.09 18.5727 180.276 17.9974C182.573 16.8685 184.925 17.075 187.182 18.1766C188.496 18.8147 189.09 20.3548 188.72 21.7913C188.162 23.9609 187.895 26.1447 188.226 28.3787C188.622 31.0836 187.434 33.5617 186.95 36.1327C186.682 37.5511 186.278 38.9333 186.489 40.388C186.722 41.9963 187.312 42.6297 188.847 42.4278C191.76 42.0561 194.542 41.266 196.059 38.3838C198.356 34.0125 200.979 29.7803 202.216 24.9216C202.274 24.6868 202.306 24.4186 202.456 24.2551C205.035 21.3367 205.654 17.533 207.096 14.0981C207.307 13.5893 207.633 13.1243 207.93 12.6558C208.961 11.005 210.344 10.5437 211.83 11.353C212.956 11.959 213.81 14.2849 213.329 15.5473C213.109 16.1355 212.763 16.6788 212.381 17.4394L212.369 17.4581ZM240.113 33.9267C240.032 35.9813 239.643 37.4862 240.109 39.0011C240.559 40.4839 240.924 40.7182 242.335 40.1091C245.042 38.9276 247.722 37.7128 250.39 36.4361C252.662 35.3545 254.264 33.7207 254.58 31.0392C254.699 30.0262 255.128 29.0396 255.455 28.0611C256.205 25.7933 256.012 23.495 255.7 21.1926C255.645 20.8035 255.6 20.4156 255.338 20.0726C253.915 18.2234 249.129 17.8208 247.533 19.5761C246.572 20.641 245.446 21.5656 244.587 22.703C243.072 24.7095 241.451 26.5828 241.231 29.3963C241.095 31.0619 240.098 32.6864 240.112 33.9366L240.113 33.9267ZM77.6308 24.8367C80.5895 22.4565 82.2199 19.3862 82.7433 15.7122C82.8105 15.2267 82.6932 14.7698 82.442 14.3375C81.7639 13.1701 80.7176 13.0771 80.0439 14.2665C78.2014 17.5132 77.404 21.0341 77.6296 24.8467L77.6308 24.8367ZM155.005 17.3769C152.927 19.287 152.302 21.3479 152.913 23.8467C153.742 21.7694 154.853 19.9468 155.005 17.3769Z" stroke="#242424" stroke-width="2" mask="url(#path-2-outside-1_0_1)"/>
</svg>
