<svg width="35" height="36" viewBox="0 0 35 36" fill="none" xmlns="http://www.w3.org/2000/svg">
    <path d="M2.8 18.4364L17.7333 33.3697C17.9111 33.5475 18.0111 33.7586 18.0333 34.003C18.0556 34.2475 17.9556 34.4808 17.7333 34.703C17.5111 34.9253 17.2889 35.0364 17.0667 35.0364C16.8444 35.0364 16.6222 34.9253 16.4 34.703L0.6 18.903C0.377778 18.6808 0.222222 18.4586 0.133333 18.2364C0.0444444 18.0141 0 17.7697 0 17.503C0 17.2364 0.0444444 16.9919 0.133333 16.7697C0.222222 16.5475 0.377778 16.3253 0.6 16.103L16.4 0.30303C16.5778 0.125253 16.7889 0.0252525 17.0333 0.0030303C17.2778 -0.0191919 17.5111 0.0808081 17.7333 0.30303C17.9556 0.525253 18.0667 0.747475 18.0667 0.969697C18.0667 1.19192 17.9556 1.41414 17.7333 1.63636L2.8 16.5697H34C34.2667 16.5697 34.4889 16.6586 34.6667 16.8364C34.8444 17.0141 34.9333 17.2364 34.9333 17.503C34.9333 17.7697 34.8444 17.9919 34.6667 18.1697C34.4889 18.3475 34.2667 18.4364 34 18.4364H2.8Z" fill="white"/>
</svg>
