<svg width="32" height="18" viewBox="0 0 32 18" fill="none" xmlns="http://www.w3.org/2000/svg">
    <path d="M25.4 10L20.7 14.7C20.5667 14.8334 20.4083 14.9084 20.225 14.925C20.0417 14.9417 19.8667 14.8667 19.7 14.7C19.5333 14.5334 19.45 14.3667 19.45 14.2C19.45 14.0334 19.5333 13.8667 19.7 13.7L24.4 9.00003L19.7 4.30003C19.5667 4.1667 19.4917 4.00837 19.475 3.82503C19.4583 3.6417 19.5333 3.4667 19.7 3.30003C19.8667 3.13337 20.0333 3.05003 20.2 3.05003C20.3667 3.05003 20.5333 3.13337 20.7 3.30003L25.4 8.00003L30.1 3.30003C30.2333 3.1667 30.3917 3.0917 30.575 3.07503C30.7583 3.05837 30.9333 3.13337 31.1 3.30003C31.2667 3.4667 31.35 3.63337 31.35 3.80003C31.35 3.9667 31.2667 4.13337 31.1 4.30003L26.4 9.00003L31.1 13.7C31.2333 13.8334 31.3083 13.9917 31.325 14.175C31.3417 14.3584 31.2667 14.5334 31.1 14.7C30.9333 14.8667 30.7667 14.95 30.6 14.95C30.4333 14.95 30.2667 14.8667 30.1 14.7L25.4 10ZM6.9 12.4H1.9C1.46667 12.4 1.10833 12.2584 0.825002 11.975C0.541668 11.6917 0.400002 11.3334 0.400002 10.9V7.10003C0.400002 6.6667 0.541668 6.30837 0.825002 6.02503C1.10833 5.7417 1.46667 5.60003 1.9 5.60003H6.9L11.9 0.600033C12.1333 0.366699 12.4083 0.308366 12.725 0.425033C13.0417 0.541699 13.2 0.766699 13.2 1.10003V16.9C13.2 17.2334 13.0417 17.4584 12.725 17.575C12.4083 17.6917 12.1333 17.6334 11.9 17.4L6.9 12.4ZM11.8 2.70003L7.5 7.00003H1.8V11H7.5L11.8 15.3V2.70003Z" fill="white"/>
</svg>
