<svg width="48" height="48" viewBox="0 0 48 48" fill="none" xmlns="http://www.w3.org/2000/svg">
    <path d="M19.12 34C19.437 34 19.7018 33.895 19.9145 33.685C20.1273 33.4745 20.2336 33.2138 20.2336 32.903V14.097C20.2336 13.7862 20.1262 13.5258 19.9113 13.3158C19.697 13.1053 19.4311 13 19.1136 13C18.7967 13 18.5318 13.1053 18.3191 13.3158C18.1064 13.5258 18 13.7862 18 14.097V32.903C18 33.2138 18.1074 33.4745 18.3223 33.685C18.5366 33.895 18.8025 34 19.12 34ZM29.3308 34C29.6478 34 29.9126 33.895 30.1254 33.685C30.3381 33.4745 30.4444 33.2138 30.4444 32.903V14.097C30.4444 13.7862 30.337 13.5258 30.1222 13.3158C29.9078 13.1053 29.6419 13 29.3244 13C29.0075 13 28.7426 13.1053 28.5299 13.3158C28.3172 13.5258 28.2108 13.7862 28.2108 14.097V32.903C28.2108 33.2138 28.3182 33.4745 28.5331 33.685C28.7474 33.895 29.0133 34 29.3308 34Z" fill="white"/>
</svg>
