<svg width="16" height="19" viewBox="0 0 16 19" fill="none" xmlns="http://www.w3.org/2000/svg">
    <path d="M0 17.0333V1.75C0 1.20556 0.175 0.777778 0.525 0.466667C0.875 0.155556 1.28333 0 1.75 0C1.90556 0 2.06111 0.0194444 2.21667 0.0583333C2.37222 0.0972222 2.52778 0.155556 2.68333 0.233333L14.7 7.93333C14.9722 8.12778 15.1764 8.34167 15.3125 8.575C15.4486 8.80833 15.5167 9.08056 15.5167 9.39167C15.5167 9.70278 15.4486 9.975 15.3125 10.2083C15.1764 10.4417 14.9722 10.6556 14.7 10.85L2.68333 18.55C2.52778 18.6278 2.37222 18.6861 2.21667 18.725C2.06111 18.7639 1.90556 18.7833 1.75 18.7833C1.28333 18.7833 0.875 18.6278 0.525 18.3167C0.175 18.0056 0 17.5778 0 17.0333ZM1.63333 17.2083L14 9.39167L1.63333 1.575V17.2083Z" fill="white"/>
</svg>
