<svg width="30" height="28" viewBox="0 0 30 28" fill="none" xmlns="http://www.w3.org/2000/svg">
    <path d="M28.4 14.7H23.8C23.6017 14.7 23.4355 14.6327 23.3015 14.498C23.1672 14.3637 23.1 14.197 23.1 13.998C23.1 13.7993 23.1672 13.6333 23.3015 13.5C23.4355 13.3667 23.6017 13.3 23.8 13.3H28.4C28.5983 13.3 28.7645 13.3673 28.8985 13.502C29.0328 13.6363 29.1 13.803 29.1 14.002C29.1 14.2007 29.0328 14.3667 28.8985 14.5C28.7645 14.6333 28.5983 14.7 28.4 14.7ZM20.85 23.15C20.9833 22.9833 21.1417 22.8833 21.325 22.85C21.5083 22.8167 21.6833 22.8667 21.85 23L25.5 25.75C25.6667 25.8833 25.7667 26.0417 25.8 26.225C25.8333 26.4083 25.7833 26.5833 25.65 26.75C25.5167 26.9167 25.3583 27.0167 25.175 27.05C24.9917 27.0833 24.8167 27.0333 24.65 26.9L21 24.15C20.8333 24.0167 20.7333 23.8583 20.7 23.675C20.6667 23.4917 20.7167 23.3167 20.85 23.15ZM25.3 2.04999L21.65 4.79999C21.4833 4.93332 21.3083 4.98332 21.125 4.94999C20.9417 4.91666 20.7833 4.81666 20.65 4.64999C20.5167 4.48332 20.4667 4.30832 20.5 4.12499C20.5333 3.94166 20.6333 3.78332 20.8 3.64999L24.45 0.89999C24.6167 0.766657 24.7917 0.716657 24.975 0.74999C25.1583 0.783324 25.3167 0.883324 25.45 1.04999C25.5833 1.21666 25.6333 1.39166 25.6 1.57499C25.5667 1.75832 25.4667 1.91666 25.3 2.04999ZM7.4 17.4H2.4C1.975 17.4 1.61884 17.2562 1.3315 16.9685C1.04384 16.6812 0.900002 16.325 0.900002 15.9V12.1C0.900002 11.675 1.04384 11.3187 1.3315 11.031C1.61884 10.7437 1.975 10.6 2.4 10.6H7.4L12.4 5.59999C12.6333 5.36666 12.9083 5.31199 13.225 5.43599C13.5417 5.55999 13.7 5.78132 13.7 6.09999V21.9C13.7 22.2187 13.5417 22.44 13.225 22.564C12.9083 22.688 12.6333 22.6333 12.4 22.4L7.4 17.4ZM12.3 7.69999L8 12H2.3V16H8L12.3 20.3V7.69999Z" fill="white"/>
</svg>
